<svg width="54" height="54" viewBox="0 0 54 54" fill="none" xmlns="http://www.w3.org/2000/svg">
<path d="M27 47.25C39.4264 47.25 49.5 37.1764 49.5 24.75C49.5 12.3236 39.4264 2.25 27 2.25C14.5736 2.25 4.5 12.3236 4.5 24.75C4.5 37.1764 14.5736 47.25 27 47.25Z" fill="#FFF59D"/>
<path d="M41.6253 24.75C41.6253 16.0875 34.2003 9.22499 25.3128 10.2375C18.5628 11.025 13.1628 16.425 12.4878 23.175C11.9253 28.35 14.0628 32.9625 17.6628 35.8875C19.2378 37.2375 20.2503 39.15 20.2503 41.2875V41.625H33.7503V41.5125C33.7503 39.4875 34.6503 37.4625 36.2253 36.1125C39.4878 33.4125 41.6253 29.3625 41.6253 24.75Z" fill="#FBC02D"/>
<path d="M34.4248 22.7249L31.0498 20.4749C30.7123 20.2499 30.1498 20.2499 29.8123 20.4749L26.9998 22.2749L24.2998 20.4749C23.9623 20.2499 23.3998 20.2499 23.0623 20.4749L19.6873 22.7249C19.4623 22.9499 19.2373 23.1749 19.2373 23.5124C19.2373 23.8499 19.2373 24.1874 19.4623 24.4124L23.7373 29.6999V41.6249H25.9873V29.2499C25.9873 29.0249 25.8748 28.7999 25.7623 28.5749L22.0498 23.9624L23.7373 22.8374L26.4373 24.6374C26.7748 24.8624 27.3373 24.8624 27.6748 24.6374L30.3748 22.8374L32.0623 23.9624L28.3498 28.5749C28.2373 28.7999 28.1248 29.0249 28.1248 29.2499V41.6249H30.3748V29.6999L34.6498 24.4124C34.8748 24.1874 34.9873 23.8499 34.8748 23.5124C34.7623 23.1749 34.6498 22.8374 34.4248 22.7249Z" fill="#FFF59D"/>
<path d="M27 52.875C28.864 52.875 30.375 51.364 30.375 49.5C30.375 47.636 28.864 46.125 27 46.125C25.136 46.125 23.625 47.636 23.625 49.5C23.625 51.364 25.136 52.875 27 52.875Z" fill="#5C6BC0"/>
<path d="M29.25 50.625H24.75C22.275 50.625 20.25 48.6 20.25 46.125V40.5H33.75V46.125C33.75 48.6 31.725 50.625 29.25 50.625Z" fill="#9FA8DA"/>
<path d="M33.75 46.125L20.7 47.925C21.0375 48.7125 21.7125 49.5 22.5 49.95L33.075 48.4875C33.525 47.8125 33.75 47.025 33.75 46.125ZM20.25 43.5375V45.7875L33.75 43.875V41.625L20.25 43.5375Z" fill="#5C6BC0"/>
</svg>
