<svg width="54" height="54" viewBox="0 0 54 54" fill="none" xmlns="http://www.w3.org/2000/svg">
<path d="M53.9839 30.451C53.9839 31.3774 53.5029 32.125 52.9115 32.125H41.0399C40.4451 32.125 39.9658 31.3766 39.9658 30.451C39.9658 29.5279 40.4451 28.7761 41.0399 28.7761H52.9115C53.5021 28.7753 53.983 29.5279 53.983 30.451" fill="#243438"/>
<path d="M41.3293 31.0729C41.3293 30.1464 41.8094 29.3972 42.4026 29.3972H53.7367C53.5409 29.0225 53.2448 28.7795 52.9115 28.7795H41.0399C40.4451 28.7795 39.9658 29.5322 39.9658 30.4544C39.9658 31.3808 40.4451 32.1284 41.0399 32.1284H41.5748C41.4087 31.8016 41.3239 31.4395 41.3276 31.0729" fill="#2B3B3F"/>
<path d="M52.112 18.36C52.6208 19.1346 52.6318 20.0239 52.134 20.3437L42.1752 26.741C41.6774 27.0608 40.8632 26.6904 40.3552 25.9158C39.8456 25.1396 39.8363 24.2503 40.3341 23.9305L50.2912 17.5332C50.7882 17.2134 51.6024 17.5855 52.112 18.36" fill="#243438"/>
<path d="M41.8382 25.6988C41.3294 24.9243 41.3185 24.0333 41.8163 23.7152L51.3262 17.6039C50.9541 17.398 50.5719 17.3533 50.2909 17.533L40.3338 23.9303C39.836 24.2501 39.8461 25.1394 40.3549 25.9157C40.8637 26.6903 41.6771 27.0607 42.1749 26.7409L42.6237 26.4506C42.3064 26.2653 42.0373 26.0077 41.8382 25.6988" fill="#2B3B3F"/>
<path d="M52.112 42.5503C52.6208 41.7758 52.6318 40.8865 52.134 40.5684L42.1752 34.1711C41.6774 33.8487 40.8632 34.2191 40.3552 34.9962C39.8456 35.7708 39.8363 36.6601 40.3341 36.9799L50.2912 43.3772C50.7882 43.697 51.6024 43.3266 52.112 42.5503" fill="#243438"/>
<path d="M41.8382 35.2088C41.3294 35.9876 41.3185 36.8744 41.8163 37.195L51.3262 43.3038C50.9541 43.5097 50.5719 43.5569 50.2909 43.3747L40.3338 36.9773C39.836 36.6576 39.8461 35.7683 40.3549 34.9937C40.8637 34.2166 41.6771 33.847 42.1749 34.1685L42.6237 34.4562C42.3402 34.6165 42.0593 34.8713 41.8382 35.2088" fill="#2B3B3F"/>
<path d="M34.3853 25.7816C34.9017 25.3142 34.8646 25.1193 35.0629 24.7565C35.3557 24.2257 35.359 23.7802 35.1903 23.3871C33.2513 22.3577 31.5672 20.8566 30.8677 18.754C30.6129 17.9904 30.5572 17.0581 30.6172 16.2582C30.6619 15.6448 30.3404 14.9226 29.9337 14.2265C29.7835 14.0451 29.6021 13.8805 29.4258 13.7135C29.7084 13.3844 30.0324 13.0005 30.2527 12.3516C30.5859 11.4083 30.5783 8.93277 30.4923 7.89074C30.3218 5.8514 28.2504 5.04646 26.1622 4.37652C26.0044 4.32758 25.8567 4.51068 25.7352 4.82118C24.3506 4.7579 22.6142 5.26668 21.6953 5.33418C20.6761 5.40505 19.6729 5.43711 18.673 5.46918C14.3843 7.05796 10.3123 6.79386 6.66731 10.5005C4.73428 12.4672 3.0375 14.6357 1.17366 16.6548C1.89591 16.6286 2.61478 16.6134 3.36656 16.6919C3.78591 16.7366 3.60619 18.2376 3.48975 18.4773C2.68988 20.1192 1.35506 21.2161 0 22.3459C3.88125 24.5953 5.50884 28.7744 6.70612 33.0488C7.43818 33.4644 8.14097 33.9296 8.80959 34.441C9.1935 38.2716 9.58078 43.3071 9.3825 46.0046C9.34537 46.3565 9.30234 46.6864 9.24413 46.9597C9.22894 47.0416 9.18844 47.1808 9.14288 47.3394C8.937 47.779 8.45016 48.6059 8.11013 49.345H28.998C28.6411 48.7443 28.1956 48.1081 28.0201 47.7453C28.01 47.6896 28.0015 47.6297 27.9939 47.59C27.6716 46.256 27.4227 43.3628 27.3409 42.023C27.3282 42.0154 27.2995 42.0044 27.2852 41.9985L27.2835 41.9892C29.446 42.768 30.0299 43.0523 32.1376 43.2464C33.7576 43.3966 33.9204 41.7496 33.9593 41.542C34.2622 39.9667 33.885 38.7467 34.0267 37.373C34.1094 36.5479 34.9439 35.4814 34.6461 34.7684C34.4461 34.29 34.1314 33.8386 33.6673 33.4209C33.4201 33.1999 31.7621 33.3762 31.4617 33.1627C30.3632 32.3916 30.9513 32.4515 31.6693 31.6288C32.9873 30.5707 33.6454 30.326 34.0267 29.387C34.225 28.8934 33.4395 28.5255 33.1644 27.9408C32.983 27.5535 33.2978 26.9359 33.2868 26.606C33.4707 26.4381 34.198 25.9554 34.3853 25.7833" fill="#BC86D6"/>
</svg>
