<svg width="54" height="54" viewBox="0 0 54 54" fill="none" xmlns="http://www.w3.org/2000/svg">
<path d="M3.14279 52.0044C4.10044 53.0422 8.04497 51.2324 11.1584 49.7811C13.4914 48.6969 22.8275 44.8663 27.4681 42.8792C28.7211 42.3435 30.5436 41.6432 31.8556 39.9177C33.02 38.3821 36.1081 31.8599 29.8897 25.2533C23.5784 18.5455 17.0773 20.3975 14.6473 22.1188C13.2172 23.1313 12.0528 25.4136 11.5297 26.5738C9.31904 31.476 6.16763 40.4577 4.88513 43.9888C3.94435 46.5917 2.19357 50.975 3.14279 52.0044V52.0044Z" fill="#FFC107"/>
<path d="M10.9058 28.0505C10.9649 28.7846 11.1125 29.9785 11.6188 32.2777C11.9647 33.8555 12.53 35.5093 12.9899 36.6019C14.3694 39.8884 16.3058 41.213 18.2675 42.2762C21.6004 44.0818 23.8658 44.4193 23.8658 44.4193L21.1489 45.5288C21.1489 45.5288 19.5036 45.1871 17.2593 44.0818C15.1204 43.0271 12.8929 41.2426 11.2644 37.7494C10.5599 36.2349 10.1507 34.7668 9.91441 33.6024C9.62332 32.1596 9.57691 31.3412 9.57691 31.3412L10.9058 28.0505V28.0505ZM7.56879 36.6062C7.56879 36.6062 7.90629 39.3441 10.1675 42.7993C12.8169 46.8408 16.5168 47.5032 16.5168 47.5032L14.0572 48.5157C14.0572 48.5157 11.3108 47.6762 8.69941 44.1113C7.07098 41.888 6.61535 39.2302 6.61535 39.2302L7.56879 36.6062V36.6062ZM5.22738 43.0946C5.22738 43.0946 5.84332 45.4571 7.19332 47.2205C8.80066 49.3257 10.8468 49.9374 10.8468 49.9374L8.96098 50.7727C8.96098 50.7727 7.53082 50.4732 5.96566 48.4904C4.77598 46.9843 4.43848 45.2546 4.43848 45.2546L5.22738 43.0946V43.0946Z" fill="#FF8F00"/>
<path opacity="0.44" d="M4.20144 49.0935C4.11706 48.9037 4.11706 48.6885 4.20565 48.5029L14.9508 26.2195L16.7185 32.864L5.41222 49.1948C5.10847 49.6504 4.42503 49.5914 4.20144 49.0935V49.0935Z" fill="#FFFDE7"/>
<path d="M17.5714 35.0957C22.5917 40.9682 28.3081 40.2342 30.2107 38.7492C32.1176 37.2599 33.6237 32.1426 28.6245 26.3671C23.3848 20.3174 17.4532 22.0429 16.0821 23.3507C14.711 24.6585 12.9645 29.7084 17.5714 35.0957V35.0957Z" fill="url(#paint0_linear_403_143)"/>
<path d="M34.813 37.5131C32.9821 35.9774 32.0076 36.2517 30.6998 36.7959C29.0123 37.4962 26.3587 38.0151 22.7559 36.7959L23.8401 34.1845C25.979 34.9059 27.5273 34.5557 28.8646 33.7668C30.5859 32.7543 32.9399 31.3663 36.6018 34.4418C38.129 35.7243 39.6941 36.5765 40.8416 36.1884C41.677 35.9099 42.1199 34.6654 42.3435 33.674C42.3646 33.5854 42.3984 33.3323 42.4237 33.1087C42.6262 31.5604 42.9637 28.2192 45.4527 26.5106C48.1148 24.6838 50.9118 24.6838 50.9118 24.6838L51.418 29.7126C50.1313 29.5227 49.237 29.7843 48.4818 30.202C45.6384 31.784 48.1148 37.859 43.6893 39.9009C39.4326 41.8795 35.9521 38.4665 34.813 37.5131V37.5131Z" fill="#03A9F4"/>
<path d="M19.1531 31.1006L17.3222 29.4595C20.6845 25.7048 19.7986 22.9458 19.1531 20.9377C19.0223 20.5327 18.9 20.1487 18.8198 19.7817C18.5329 18.4823 18.4739 17.3517 18.5625 16.3645C17.2715 14.7572 16.702 13.0739 16.664 12.96C15.8793 10.5848 16.47 8.26875 17.8242 6.09609C20.5622 1.6875 25.5192 1.6875 25.5192 1.6875L27.1729 6.11297C25.9158 6.06234 21.794 6.12562 20.5284 8.12109C18.9295 10.6355 19.98 12.188 20.0559 12.3652C20.3639 11.9644 20.6761 11.6438 20.9545 11.3948C22.9753 9.60188 24.7303 9.34453 25.8483 9.44578C27.1054 9.55969 28.2445 10.1925 29.0587 11.2303C29.9489 12.3694 30.3159 13.8502 30.0333 15.1959C29.759 16.508 28.8858 17.6175 27.5737 18.322C25.2829 19.5539 23.3761 19.3852 22.0978 18.9591C22.1062 18.9886 22.1104 19.0223 22.1189 19.0519C22.1653 19.2628 22.2581 19.5581 22.3678 19.8998C23.1145 22.2117 24.5025 25.882 19.1531 31.1006V31.1006ZM22.2539 15.2677C22.4986 15.4448 22.7559 15.5925 23.0217 15.698C23.9076 16.0523 24.8737 15.9342 25.9706 15.3436C26.6161 14.9977 26.692 14.6264 26.7173 14.5041C26.7933 14.137 26.6667 13.6687 26.3925 13.3186C26.152 13.0106 25.8736 12.8503 25.5403 12.8166C24.9075 12.7617 24.0511 13.1625 23.1947 13.9261C22.7854 14.2931 22.4733 14.7445 22.2539 15.2677Z" fill="#F44336"/>
<path d="M26.4812 31.7883L23.8613 31.7165C23.8613 31.7165 25.1059 24.6881 29.1348 23.5069C29.8899 23.2875 30.7168 23.0639 31.5479 22.9415C32.0415 22.8656 32.822 22.7517 33.2059 22.6083C33.2945 21.9459 33.016 21.1022 32.7038 20.1445C32.4591 19.402 32.206 18.6384 32.071 17.8031C31.8095 16.1747 32.244 14.7361 33.2945 13.7447C34.577 12.5423 36.6484 12.1584 38.9855 12.69C40.3187 12.9937 41.3016 13.6476 42.1665 14.2214C43.4026 15.044 44.124 15.4617 45.6343 14.445C47.461 13.2131 45.0732 8.39107 43.8034 5.6067L48.541 3.63232C49.178 5.02451 52.2535 12.1879 50.2243 16.2759C49.5409 17.6512 48.3638 18.5625 46.8198 18.9042C43.4616 19.6551 41.4957 18.3473 40.0613 17.3939C39.3821 16.9425 38.7873 16.5881 38.1418 16.4025C33.6573 15.1242 39.9179 21.7223 36.9859 24.6881C35.2266 26.4642 30.9277 26.9325 30.6493 27C27.8818 27.6665 26.4812 31.7883 26.4812 31.7883V31.7883Z" fill="#F48FB1"/>
<path d="M18.5583 16.3645C18.4781 17.2926 18.4402 17.8453 18.6806 19.0518C19.8408 19.904 22.3678 19.904 22.3678 19.904C22.2581 19.5623 22.1611 19.267 22.1189 19.0561C22.1105 19.0265 22.1063 18.9928 22.0978 18.9633C19.5286 17.6808 18.5583 16.3645 18.5583 16.3645V16.3645Z" fill="#C92B27"/>
<path d="M13.3016 20.5201L8.93945 18.3812L11.1121 15.2424L14.5335 17.5079L13.3016 20.5201Z" fill="#FFC107"/>
<path d="M6.87207 14.597C4.64457 14.2974 2.37488 12.4074 2.12598 12.1923L4.31551 9.62305C4.97785 10.1841 6.3827 11.1249 7.32348 11.2515L6.87207 14.597Z" fill="#FB8C00"/>
<path d="M10.8039 8.97331L7.59766 7.92284C7.96469 6.80065 8.06172 5.58987 7.87187 4.42128L11.2047 3.8855C11.4789 5.58144 11.3397 7.34066 10.8039 8.97331V8.97331Z" fill="#03A9F4"/>
<path d="M30.8281 6.4653L34.1251 5.7439L35.0772 10.096L31.7803 10.8174L30.8281 6.4653Z" fill="#FB8C00"/>
<path d="M39.0068 7.49663L36.6865 5.04554C37.9015 3.89382 38.18 2.38772 38.18 2.37085L41.5128 2.91507C41.4706 3.18085 41.0445 5.56866 39.0068 7.49663V7.49663Z" fill="#FFC107"/>
<path d="M40.2949 20.4946L43.2426 19.5732L44.2492 22.7947L41.3015 23.7161L40.2949 20.4946Z" fill="#FB8C00"/>
<path d="M41.1539 47.6845L37.8 47.2879C37.9434 46.094 37.0533 44.6301 36.8086 44.3053L39.5086 42.2803C39.7111 42.5461 41.4703 44.9803 41.1539 47.6845V47.6845Z" fill="#F44336"/>
<path d="M50.7811 43.4067C49.5197 43.2168 48.2288 43.1409 46.9547 43.1873L46.8408 39.8123C48.3216 39.7617 49.8193 39.8461 51.2832 40.0697L50.7811 43.4067V43.4067Z" fill="#FB8C00"/>
<path d="M46.2432 48.0524L48.6141 45.6506L51.8773 48.8729L49.5064 51.2742L46.2432 48.0524Z" fill="#F48FB1"/>
<path d="M39.2774 26.719L41.7159 29.5072L38.9277 31.9456L36.4893 29.1574L39.2774 26.719Z" fill="#F44336"/>
<defs>
<linearGradient id="paint0_linear_403_143" x1="31.381" y1="26.0883" x2="18.8231" y2="33.623" gradientUnits="userSpaceOnUse">
<stop offset="0.024" stop-color="#8F4700"/>
<stop offset="1" stop-color="#703E2D"/>
</linearGradient>
</defs>
</svg>
