<svg width="54" height="54" viewBox="0 0 54 54" fill="none" xmlns="http://www.w3.org/2000/svg">
<path d="M4.5 31.5V9C4.5 6.525 6.525 4.5 9 4.5H40.5C42.975 4.5 45 6.525 45 9V31.5C45 33.975 42.975 36 40.5 36H9C6.525 36 4.5 33.975 4.5 31.5Z" fill="#546E7A"/>
<path d="M40.5 7.875H9C8.325 7.875 7.875 8.325 7.875 9V31.5C7.875 32.175 8.325 32.625 9 32.625H40.5C41.175 32.625 41.625 32.175 41.625 31.5V9C41.625 8.325 41.175 7.875 40.5 7.875Z" fill="#BBDEFB"/>
<path d="M42.75 37.125H6.75C4.275 37.125 2.25 35.1 2.25 32.625H47.25C47.25 35.1 45.225 37.125 42.75 37.125Z" fill="#37474F"/>
<path d="M27 45V18C27 15.525 29.025 13.5 31.5 13.5H45C47.475 13.5 49.5 15.525 49.5 18V45C49.5 47.475 47.475 49.5 45 49.5H31.5C29.025 49.5 27 47.475 27 45Z" fill="#E38939"/>
<path d="M45 16.875H31.5C30.825 16.875 30.375 17.325 30.375 18V42.75C30.375 43.425 30.825 43.875 31.5 43.875H45C45.675 43.875 46.125 43.425 46.125 42.75V18C46.125 17.325 45.675 16.875 45 16.875Z" fill="#FFF3E0"/>
<path d="M38.25 48.375C39.182 48.375 39.9375 47.6195 39.9375 46.6875C39.9375 45.7555 39.182 45 38.25 45C37.318 45 36.5625 45.7555 36.5625 46.6875C36.5625 47.6195 37.318 48.375 38.25 48.375Z" fill="#A6642A"/>
</svg>
