<svg width="54" height="54" viewBox="0 0 54 54" fill="none" xmlns="http://www.w3.org/2000/svg">
<path d="M27 51.0271C41.0833 51.0271 52.5 39.6104 52.5 25.5271C52.5 11.4438 41.0833 0.0270996 27 0.0270996C12.9167 0.0270996 1.5 11.4438 1.5 25.5271C1.5 39.6104 12.9167 51.0271 27 51.0271Z" fill="#FFCB4C"/>
<path d="M21.7864 31.5541C21.5615 31.3766 21.3978 31.1332 21.3184 30.8581C21.2682 30.6994 21.2517 30.532 21.2698 30.3666C21.2879 30.2012 21.3402 30.0414 21.4235 29.8973C21.5067 29.7533 21.6191 29.6281 21.7534 29.5299C21.8876 29.4316 22.0409 29.3623 22.2034 29.3266C28.9954 27.7951 33.5689 31.3711 33.7624 31.5241C34.3384 31.9831 34.4509 32.7916 34.0219 33.3316C33.5929 33.8686 32.7799 33.9331 32.2054 33.4771C32.0404 33.3511 28.4209 30.5926 22.9324 31.8301C22.7329 31.8726 22.5264 31.8699 22.328 31.8221C22.1297 31.7744 21.9446 31.6828 21.7864 31.5541V31.5541Z" fill="#65471B"/>
<path d="M19.6787 20.7451C21.4391 20.7451 22.8662 18.9614 22.8662 16.7611C22.8662 14.5608 21.4391 12.7771 19.6787 12.7771C17.9183 12.7771 16.4912 14.5608 16.4912 16.7611C16.4912 18.9614 17.9183 20.7451 19.6787 20.7451Z" fill="#65471B"/>
<path d="M36.5625 22.3381C38.3229 22.3381 39.75 20.5544 39.75 18.3541C39.75 16.1538 38.3229 14.3701 36.5625 14.3701C34.8021 14.3701 33.375 16.1538 33.375 18.3541C33.375 20.5544 34.8021 22.3381 36.5625 22.3381Z" fill="#65471B"/>
<path d="M25.9143 52.7235C25.9143 52.7235 27.8118 52.107 28.0578 50.6955C28.3173 49.2375 27.1218 48.945 27.1218 48.945C27.1218 48.945 28.6833 48.633 28.8798 46.881C29.0643 45.2295 27.5883 44.8365 27.5883 44.8365C27.5883 44.8365 29.0433 44.2365 29.1123 42.528C29.1693 41.0895 27.6198 40.386 27.6198 40.386C27.6198 40.386 35.1768 38.5545 35.9538 38.3745C36.7278 38.1945 37.9338 37.452 37.5573 35.8335C37.1838 34.2135 35.7513 34.1565 35.0118 34.329C34.2708 34.5015 24.8958 36.678 21.6618 37.431L19.5033 37.932C18.6933 38.1225 18.3258 37.767 18.8973 37.164C19.6593 36.36 20.1468 35.4705 20.3163 33.9945C20.4948 32.442 19.9683 30.525 19.6668 29.781C19.1058 28.3995 18.1593 27.3075 17.0658 26.9325C15.3603 26.3475 14.1483 27.414 14.7528 29.274C15.6588 32.055 15.0648 34.3365 13.5033 35.7135C9.82977 38.949 8.12127 41.256 9.25827 46.173C10.5003 51.5355 15.8238 54.987 21.1863 53.745L25.9143 52.7235Z" fill="#F19020"/>
<path d="M13.944 9.52653C13.6915 9.39225 13.4866 9.18321 13.3575 8.92804C13.2793 8.78118 13.2326 8.61968 13.2201 8.45379C13.2077 8.28789 13.2299 8.12123 13.2854 7.96438C13.3408 7.80753 13.4283 7.66392 13.5421 7.54267C13.656 7.42141 13.7939 7.32517 13.947 7.26003C20.346 4.51353 25.4955 7.19553 25.7115 7.31103C26.361 7.65753 26.6235 8.43153 26.298 9.04203C25.974 9.64953 25.188 9.86104 24.5385 9.51904C24.354 9.42454 20.2905 7.37103 15.1215 9.58953C14.9329 9.66719 14.7293 9.70183 14.5256 9.69093C14.3219 9.68004 14.1232 9.62387 13.944 9.52653V9.52653ZM32.1465 15.1515C31.9043 15.0005 31.7147 14.7784 31.6035 14.5155C31.5352 14.3636 31.4993 14.1991 31.498 14.0325C31.4968 13.8659 31.5302 13.7008 31.5963 13.5479C31.6623 13.3949 31.7595 13.2574 31.8816 13.1441C32.0037 13.0307 32.148 12.944 32.3055 12.8895C38.877 10.5855 43.833 13.6095 44.04 13.74C44.6625 14.13 44.8725 14.9205 44.508 15.507C44.145 16.092 43.344 16.2495 42.7215 15.864C42.5415 15.756 38.631 13.4325 33.321 15.2955C33.1267 15.3597 32.9207 15.3801 32.7176 15.3552C32.5145 15.3303 32.3195 15.2607 32.1465 15.1515V15.1515Z" fill="#65471B"/>
</svg>
