<svg width="54" height="54" viewBox="0 0 54 54" fill="none" xmlns="http://www.w3.org/2000/svg">
<path d="M23.817 30.0461L25.7599 28.9235L23.2402 26.804L23.817 30.0461Z" fill="black"/>
<path d="M47.8218 26.9783C47.8218 26.5004 47.5869 26.0803 47.2294 25.8168L47.237 25.8038L42.202 22.897L45.1002 17.8771L45.0905 17.8712C45.182 17.6643 45.2235 17.4388 45.2116 17.2129C45.1997 16.9869 45.1347 16.767 45.0219 16.5709C44.9083 16.375 44.75 16.2086 44.56 16.0853C44.37 15.962 44.1536 15.8853 43.9284 15.8613V15.8473H38.1137V10.0493H38.1018C38.0776 9.82437 38.0007 9.6083 37.8775 9.4186C37.7542 9.22889 37.588 9.0709 37.3922 8.95743C37.1958 8.84429 36.9754 8.77919 36.7491 8.76746C36.5227 8.75573 36.2968 8.7977 36.0897 8.88993L36.0827 8.87751L30.963 11.8335L28.128 6.92271L28.1177 6.92865C27.9843 6.74598 27.8097 6.59732 27.6081 6.49468C27.4064 6.39205 27.1835 6.33834 26.9573 6.33789C26.4794 6.33789 26.0587 6.57279 25.7957 6.93027L25.7828 6.92271L22.9008 11.9145L17.9382 9.04923L17.9322 9.05949C17.7254 8.96795 17.4998 8.92645 17.2739 8.93837C17.048 8.95028 16.828 9.01527 16.6319 9.12807C16.4359 9.24161 16.2694 9.39981 16.146 9.58982C16.0226 9.77983 15.9458 9.99628 15.9218 10.2216H15.9072V15.9855H10.1768V15.9969C9.95183 16.0211 9.73575 16.0979 9.54605 16.2212C9.35635 16.3445 9.19836 16.5107 9.08489 16.7064C8.97204 16.9027 8.90707 17.1229 8.89525 17.349C8.88343 17.5751 8.92509 17.8008 9.01685 18.0078L9.00443 18.0154L11.8373 22.9224L6.76451 25.8513L6.77045 25.8616C6.58778 25.9951 6.43911 26.1697 6.33648 26.3713C6.23385 26.5729 6.18013 26.7958 6.17969 27.022C6.17969 27.4999 6.41459 27.9206 6.77207 28.1836L6.76451 28.1965L11.7995 31.1034L8.90129 36.1232L8.91101 36.1286C8.81946 36.3355 8.77797 36.561 8.78988 36.787C8.8018 37.0129 8.86679 37.2328 8.97959 37.4289C9.09322 37.6249 9.25146 37.7912 9.44146 37.9145C9.63146 38.0378 9.84786 38.1145 10.0731 38.1385V38.1531H15.8873V43.9505H15.8991C15.9488 44.3911 16.1956 44.8037 16.6087 45.0424C16.8052 45.1554 17.0255 45.2204 17.2519 45.2322C17.4782 45.2439 17.7041 45.202 17.9112 45.1099L17.9182 45.1223L23.0379 42.1663L25.8729 47.0771L25.8832 47.0712C26.0167 47.2538 26.1913 47.4025 26.3929 47.5051C26.5945 47.6078 26.8174 47.6615 27.0437 47.6619C27.5216 47.6619 27.9422 47.427 28.2052 47.0701L28.2176 47.0771L31.0996 42.0853L36.0627 44.9506L36.0687 44.9403C36.2756 45.0319 36.5011 45.0734 36.727 45.0615C36.953 45.0495 37.1729 44.9845 37.369 44.8717C37.5651 44.7583 37.7317 44.6001 37.8551 44.4101C37.9785 44.22 38.0552 44.0036 38.0791 43.7782H38.0937V38.0148H43.8247V38.0035C44.0496 37.9793 44.2657 37.9024 44.4554 37.7792C44.6451 37.6559 44.8031 37.4897 44.9166 37.2939C45.0294 37.0976 45.0944 36.8775 45.1062 36.6514C45.118 36.4252 45.0764 36.1995 44.9846 35.9925L44.9971 35.9855L42.1642 31.0785L47.237 28.1496L47.231 28.1393C47.4137 28.0057 47.5624 27.831 47.665 27.6293C47.7676 27.4276 47.8213 27.2046 47.8218 26.9783V26.9783ZM20.2704 35.2063C19.0662 35.9018 17.9744 35.9968 17.0461 35.7474L17.1762 34.291C17.8793 34.4946 18.7881 34.4935 19.6467 33.9972C20.3849 33.5712 20.5421 33.0441 20.332 32.6807C19.7061 31.5975 16.5563 34.4249 15.2025 32.0808C14.6042 31.044 15.0044 29.6664 16.4715 28.8197C17.4614 28.2478 18.456 28.0729 19.4016 28.2862L19.2347 29.7026C18.4609 29.5276 17.6644 29.7004 17.0294 30.0666C16.4688 30.3906 16.2912 30.8166 16.5072 31.1908C17.0736 32.1715 20.2683 29.4434 21.6107 31.7681C22.269 32.907 21.9434 34.2413 20.2704 35.2063V35.2063ZM27.7997 30.7102L26.7985 29.8813L24.1271 31.4236L24.3437 32.7056L22.8398 33.5733L21.6437 25.9577L23.3063 24.9981L29.3036 29.8425L27.7997 30.7102V30.7102ZM29.8263 29.5406L26.2293 23.3101L27.5653 22.5384L30.4883 27.6009L33.1224 26.0803L33.7969 27.2483L29.8263 29.5406V29.5406ZM34.6928 26.731L31.0958 20.501L35.5044 17.9549L36.1783 19.1224L33.0965 20.9022L33.8514 22.2101L36.8679 20.4681L37.5418 21.6356L34.5254 23.377L35.3451 24.7973L38.4274 23.0174L39.1019 24.1849L34.6928 26.731V26.731Z" fill="#FF0000"/>
</svg>
