<svg width="54" height="54" viewBox="0 0 54 54" fill="none" xmlns="http://www.w3.org/2000/svg">
<path d="M2.68359 4.59839H51.3216V37.3021H2.68359V4.59839Z" fill="url(#paint0_linear_403_179)"/>
<path d="M50.3255 5.59396V36.3107H3.67453V5.59396H50.3255V5.59396ZM52.3125 3.60693H1.6875V38.2977H52.3125V3.60693Z" fill="url(#paint1_linear_403_179)"/>
<path d="M27 38.2979H22.9922V42.8668C22.9922 44.9339 24.6248 46.6088 26.633 46.6088H27.3628C29.3752 46.6088 31.0036 44.9339 31.0036 42.8668V38.2979H27Z" fill="#EDC391"/>
<path d="M34.8891 41.0104C33.21 40.7236 31.4634 40.538 29.7 40.4451L28.5652 41.6644L27.0253 43.3223L25.477 41.6601L24.3422 40.4409C22.5788 40.5253 20.8322 40.694 19.1489 40.9556C11.4159 42.158 5.0625 45.2925 5.0625 50.9414V52.304H48.9375V50.9414C48.9375 45.6089 42.6305 42.3056 34.8891 41.0104V41.0104Z" fill="url(#paint2_linear_403_179)"/>
<path d="M43.9211 52.304H9.71973C9.83363 49.7137 10.2639 46.4737 11.441 43.086C11.441 43.086 12.3227 42.6388 13.7529 42.1326C14.1958 41.9722 14.6936 41.8077 15.2336 41.6516C16.3727 41.3141 17.7058 41.0062 19.1275 40.8374L20.1443 46.9672L26.755 43.4994H27.2908L33.9016 46.9672L34.9183 40.8374C39.175 41.3437 42.6049 43.086 42.6049 43.086C43.7819 46.4737 44.0266 49.7137 43.9211 52.304V52.304Z" fill="url(#paint3_linear_403_179)"/>
<path d="M15.2339 41.6516C14.0653 45.7775 13.5127 50.0343 13.403 52.304H12.1289C12.2217 50.1144 12.7027 46.1404 13.7531 42.1325C14.1961 41.9722 14.6939 41.8077 15.2339 41.6516Z" fill="url(#paint4_linear_403_179)"/>
<path d="M41.8708 52.304C41.7737 50.047 41.2084 46.1699 40.0905 42.0524L38.6055 41.5884C39.8416 45.8282 40.4828 49.9668 40.5967 52.304H41.8708V52.304Z" fill="url(#paint5_linear_403_179)"/>
<path d="M31.2653 38.762L29.7001 40.4452L29.139 41.0485L28.5653 41.6645L27.0254 43.3224L25.4771 41.6602L24.9076 41.0485L24.3423 40.441L22.7814 38.762L19.1279 40.8376L19.149 40.9557L19.2545 41.5927L19.3557 42.2087L20.1446 46.9674L27.0254 43.3604L33.902 46.9674L34.6825 42.2593L34.7879 41.6307L34.8892 41.0106L34.9187 40.8376L31.2653 38.762Z" fill="url(#paint6_linear_403_179)"/>
<path d="M42.6012 52.304L42.9303 51.165L43.1961 50.2453L43.1707 50.2368L43.175 50.2157L42.5211 50.0301L43.2129 47.617C43.2551 47.4693 43.2509 47.3217 43.2129 47.1867C43.2129 47.1824 43.2087 47.174 43.2087 47.1698C43.2057 47.1548 43.2 47.1405 43.1918 47.1276C43.1201 46.8998 42.9556 46.7184 42.732 46.6509L42.6687 46.634H42.6645L41.0825 46.1784L26.3421 41.9428C26.3211 41.9385 26.3042 41.9385 26.2873 41.9301C25.6285 41.7567 24.9281 41.8481 24.3359 42.1848C23.7437 42.5215 23.3069 43.0767 23.119 43.7315L22.5115 45.8535C22.4693 45.997 22.4229 46.1531 22.3723 46.3218L21.8154 48.2667L20.6553 52.3082L42.6012 52.304V52.304Z" fill="url(#paint7_linear_403_179)"/>
<path d="M43.1494 52.3041L44.6133 47.1951C44.7356 46.7691 44.4909 46.3261 44.0648 46.208L27.7425 41.5251C27.0773 41.335 26.3639 41.4166 25.7588 41.7519C25.1537 42.0873 24.7064 42.6491 24.5152 43.3139L21.9375 52.3041H43.1494Z" fill="#424242"/>
<path d="M43.8831 52.304L44.3303 50.7515C44.478 50.2369 44.17 49.6968 43.6469 49.5492L26.1306 44.5289C24.2195 43.9804 23.8863 45.5203 23.3505 47.3892L21.9414 52.304H43.8831V52.304Z" fill="url(#paint8_linear_403_179)"/>
<path opacity="0.2" d="M27.1397 42.8499C27.2156 42.8499 27.3 42.8584 27.3886 42.8794L43.1034 47.3935L42.9727 47.8491C37.9987 46.4612 28.5066 43.7907 26.5448 43.141C26.6461 43.0018 26.8444 42.8499 27.1397 42.8499ZM27.1397 41.4451C25.2328 41.4451 24.2794 43.7949 25.8234 44.3729C27.5236 45.0057 43.9345 49.5704 43.9345 49.5704L44.6011 47.2416C44.7319 46.7944 44.5209 46.3388 44.1328 46.2291L27.7472 41.521C27.5362 41.4704 27.3337 41.4451 27.1397 41.4451Z" fill="#424242"/>
<path d="M43.6094 47.3006L26.8188 42.4828C26.3631 42.352 25.8653 42.6769 25.7135 43.2042L25.6881 43.297C25.5363 43.8244 25.7852 44.3644 26.2408 44.4952L43.0314 49.313C43.0314 49.313 42.888 48.9628 43.061 48.3426C43.2339 47.7183 43.6094 47.3006 43.6094 47.3006V47.3006Z" fill="url(#paint9_linear_403_179)"/>
<path d="M23.57 52.3041L26.8438 40.9008L24.1311 40.1204L20.6338 52.3041H23.57Z" fill="url(#paint10_linear_403_179)"/>
<path d="M38.5301 21.2751H15.4704C12.9856 21.2751 10.9521 23.4436 10.9521 26.0887C10.9521 28.7339 12.9856 30.9023 15.4704 30.9023H38.5259C41.0107 30.9023 43.0442 28.7339 43.0442 26.0887C43.0442 23.4436 41.015 21.2751 38.5301 21.2751V21.2751Z" fill="#EDC391"/>
<path d="M26.9997 4.67017C19.659 4.67017 12.8584 12.5213 12.8584 23.8233C12.8584 35.062 19.8657 40.6181 26.9997 40.6181C34.1336 40.6181 41.1409 35.0578 41.1409 23.8191C41.1409 12.5213 34.3403 4.67017 26.9997 4.67017V4.67017Z" fill="#F9DDBD"/>
<path d="M20.3298 26.9621C21.4785 26.9621 22.4097 25.9988 22.4097 24.8105C22.4097 23.6222 21.4785 22.6589 20.3298 22.6589C19.1812 22.6589 18.25 23.6222 18.25 24.8105C18.25 25.9988 19.1812 26.9621 20.3298 26.9621Z" fill="#312D2D"/>
<path d="M33.4666 26.9621C34.6152 26.9621 35.5464 25.9988 35.5464 24.8105C35.5464 23.6222 34.6152 22.6589 33.4666 22.6589C32.3179 22.6589 31.3867 23.6222 31.3867 24.8105C31.3867 25.9988 32.3179 26.9621 33.4666 26.9621Z" fill="#312D2D"/>
<path d="M28.628 28.7127C28.5816 28.6958 28.5394 28.6832 28.493 28.679H25.5062C25.4597 28.6832 25.4133 28.6958 25.3712 28.7127C25.1012 28.8224 24.9535 29.1008 25.0801 29.4004C25.2066 29.6999 25.8015 30.5352 26.9996 30.5352C28.1977 30.5352 28.7926 29.6957 28.9191 29.4004C29.0457 29.1008 28.898 28.8224 28.628 28.7127V28.7127Z" fill="#DBA689"/>
<path d="M30.5987 32.1215C29.2572 32.9188 24.8486 32.9188 23.507 32.1215C22.735 31.6617 21.9461 32.3662 22.2667 33.0665C22.5831 33.7542 24.9836 35.3531 27.0634 35.3531C29.1432 35.3531 31.5142 33.7542 31.8306 33.0665C32.147 32.3662 31.3707 31.6617 30.5987 32.1215Z" fill="#444444"/>
<path d="M16.8791 21.3974C18.1405 19.6128 21.0051 19.4441 22.6461 20.773C22.9077 20.9839 23.2536 21.2793 23.3549 21.6083C23.5236 22.1441 23.009 22.5618 22.5069 22.4352C22.1863 22.355 21.8868 22.1821 21.5704 22.085C20.9924 21.9036 20.5747 21.853 20.0558 21.853C19.288 21.8488 18.7944 21.9458 18.0646 22.2411C17.7651 22.3635 17.5204 22.5575 17.1786 22.4141C16.7863 22.2538 16.6386 21.7518 16.8791 21.3974V21.3974ZM36.3107 22.4141C36.1883 22.3593 36.0702 22.2918 35.9479 22.2411C35.1969 21.9289 34.7708 21.8488 33.9566 21.853C33.2394 21.8572 32.8133 21.9543 32.2522 22.1441C31.9105 22.2622 31.476 22.5575 31.0963 22.4436C30.5394 22.2749 30.5563 21.6674 30.8601 21.2793C31.2229 20.8236 31.7207 20.4777 32.248 20.2499C33.4715 19.7183 34.9649 19.7943 36.1166 20.4819C36.4921 20.7055 36.9013 21.0135 37.1291 21.4016C37.4582 21.95 36.9604 22.6799 36.3107 22.4141V22.4141Z" fill="#454140"/>
<path d="M27 1.7002H26.9831C7.81737 1.80145 11.745 23.6968 11.745 23.6968C11.745 23.6968 12.6056 25.9538 12.998 26.9494C13.0528 27.0929 13.2638 27.076 13.2975 26.9283C13.7067 25.0974 15.1791 18.6047 15.9216 16.6304C16.1337 16.0678 16.5369 15.5978 17.0605 15.3024C17.5841 15.007 18.195 14.9051 18.7861 15.0146C20.6635 15.3563 23.6588 15.7782 26.9578 15.7782H27.0253C30.3244 15.7782 33.3197 15.3563 35.1971 15.0146C36.4205 14.791 37.6271 15.4702 38.0616 16.6304C38.7999 18.5963 40.2638 25.051 40.6772 26.9072C40.711 27.0591 40.9219 27.0718 40.9767 26.9283L42.2339 23.6925C42.2424 23.6968 46.17 1.80145 27 1.7002V1.7002Z" fill="#312D2D"/>
<path d="M42.2425 23.6968C42.2425 23.6968 46.1701 1.80145 27.0001 1.7002H26.9833C26.6837 1.7002 26.3926 1.70863 26.1058 1.72129C25.5362 1.7466 24.9836 1.78879 24.452 1.85207H24.4351C24.3972 1.85629 24.3634 1.86473 24.3254 1.86895C8.19294 3.89816 11.7451 23.6968 11.7451 23.6968L13.0023 26.9368C13.0572 27.0802 13.2639 27.0675 13.2976 26.9157C13.7111 25.0636 15.1792 18.6005 15.9217 16.6346C16.1338 16.072 16.537 15.602 17.0606 15.3066C17.5842 15.0112 18.1951 14.9094 18.7862 15.0188C20.6636 15.3605 23.6589 15.7824 26.9579 15.7824H27.0254C30.3245 15.7824 33.3198 15.3605 35.1972 15.0188C36.4206 14.7952 37.6272 15.4744 38.0617 16.6346C38.8042 18.6089 40.2765 25.1143 40.6815 26.9368C40.7153 27.0886 40.922 27.1013 40.9768 26.9579C41.3776 25.9622 42.2425 23.6968 42.2425 23.6968V23.6968Z" fill="url(#paint11_radial_403_179)"/>
<path d="M39.6267 22.3299C39.5971 21.8279 39.576 21.7773 38.9137 21.5663C38.3948 21.4018 35.5598 21.1698 33.4251 21.2879C33.2732 21.2963 33.1256 21.3048 32.9864 21.3174C31.0499 21.482 28.7254 22.2624 26.9789 22.3046C26.2364 22.3215 23.1778 21.5199 21.0135 21.3512C20.8743 21.3427 20.7351 21.3301 20.5917 21.3259C18.4528 21.2162 15.6051 21.4651 15.0862 21.6338C14.4239 21.849 14.4028 21.8996 14.3774 22.4016C14.3479 22.8995 14.4323 23.3298 14.8246 23.4605C15.3604 23.6377 15.3646 24.3043 15.7232 26.2196C16.0481 27.9662 16.8285 29.3457 20.1824 29.5862C20.3259 29.5946 20.4609 29.603 20.5959 29.603C23.5617 29.6452 24.5826 27.692 24.9201 27.0423C25.5487 25.8357 25.3504 24.1735 27.0126 24.1693C28.6706 24.1651 28.5145 25.7977 29.1515 27.0001C29.4932 27.6455 30.4889 29.6073 33.4293 29.5651C33.5728 29.5651 33.7204 29.5566 33.8723 29.544C37.222 29.2824 37.9982 27.8987 38.3104 26.1521C38.6564 24.2326 38.6606 23.5618 39.1921 23.3846C39.576 23.258 39.6562 22.832 39.6267 22.3299V22.3299ZM22.5154 28.7593C22.0007 28.9998 21.3131 29.1221 20.5874 29.1221C19.0729 29.1179 17.3939 28.5863 16.7864 27.5148C15.9257 25.9876 15.7021 22.8995 16.799 22.254C17.2799 21.9713 18.9042 21.7773 20.5832 21.849C22.3256 21.9249 24.127 22.2877 24.7767 23.1399C25.8567 24.5448 24.1439 27.9915 22.5154 28.7593ZM37.2389 27.4515C36.6356 28.5315 34.9439 29.0757 33.4209 29.0799C32.7037 29.0841 32.0245 28.966 31.5182 28.7298C29.8856 27.9704 28.1559 24.5363 29.219 23.123C29.8645 22.2624 31.6743 21.8912 33.4209 21.8068C35.0957 21.7266 36.7157 21.9123 37.1924 22.1907C38.2978 22.832 38.091 25.9201 37.2389 27.4515Z" fill="#212121" stroke="#212121" stroke-width="0.55" stroke-miterlimit="10"/>
<defs>
<linearGradient id="paint0_linear_403_179" x1="27" y1="4.80722" x2="27" y2="37.3312" gradientUnits="userSpaceOnUse">
<stop stop-color="#26A69A"/>
<stop offset="1" stop-color="#00796B"/>
</linearGradient>
<linearGradient id="paint1_linear_403_179" x1="26.9996" y1="3.60482" x2="26.9996" y2="38.296" gradientUnits="userSpaceOnUse">
<stop stop-color="#8D6E63"/>
<stop offset="0.779" stop-color="#795548"/>
</linearGradient>
<linearGradient id="paint2_linear_403_179" x1="27" y1="40.532" x2="27" y2="51.8345" gradientUnits="userSpaceOnUse">
<stop stop-color="#E1F5FE"/>
<stop offset="1" stop-color="#81D4FA"/>
</linearGradient>
<linearGradient id="paint3_linear_403_179" x1="26.8314" y1="40.8374" x2="26.8314" y2="51.9631" gradientUnits="userSpaceOnUse">
<stop stop-color="#00BFA5"/>
<stop offset="1" stop-color="#00AB94"/>
</linearGradient>
<linearGradient id="paint4_linear_403_179" x1="13.6814" y1="40.1797" x2="13.6814" y2="51.9108" gradientUnits="userSpaceOnUse">
<stop stop-color="#B2DFDB" stop-opacity="0.2"/>
<stop offset="0.767" stop-color="#B2DFDB" stop-opacity="0.6"/>
</linearGradient>
<linearGradient id="paint5_linear_403_179" x1="40.2394" y1="40.108" x2="40.2394" y2="51.9096" gradientUnits="userSpaceOnUse">
<stop stop-color="#B2DFDB" stop-opacity="0.2"/>
<stop offset="0.767" stop-color="#B2DFDB" stop-opacity="0.6"/>
</linearGradient>
<linearGradient id="paint6_linear_403_179" x1="27.0233" y1="48.8123" x2="27.0233" y2="39.1568" gradientUnits="userSpaceOnUse">
<stop stop-color="#E1F5FE"/>
<stop offset="1" stop-color="#81D4FA"/>
</linearGradient>
<linearGradient id="paint7_linear_403_179" x1="33.3913" y1="45.0912" x2="30.7195" y2="56.3414" gradientUnits="userSpaceOnUse">
<stop offset="0.002" stop-color="#212121" stop-opacity="0.2"/>
<stop offset="1" stop-color="#212121" stop-opacity="0.6"/>
</linearGradient>
<linearGradient id="paint8_linear_403_179" x1="34.5462" y1="46.7188" x2="32.3668" y2="54.0312" gradientUnits="userSpaceOnUse">
<stop stop-color="#EF5350"/>
<stop offset="1" stop-color="#E53935"/>
</linearGradient>
<linearGradient id="paint9_linear_403_179" x1="25.7023" y1="43.2495" x2="43.3194" y2="48.3051" gradientUnits="userSpaceOnUse">
<stop offset="0.01" stop-color="#BDBDBD"/>
<stop offset="0.987" stop-color="#F5F5F5"/>
</linearGradient>
<linearGradient id="paint10_linear_403_179" x1="22.1715" y1="51.4882" x2="24.0172" y2="45.6874" gradientUnits="userSpaceOnUse">
<stop stop-color="#212121"/>
<stop offset="1" stop-color="#424242"/>
</linearGradient>
<radialGradient id="paint11_radial_403_179" cx="0" cy="0" r="1" gradientUnits="userSpaceOnUse" gradientTransform="translate(26.993 19.8693) scale(16.0705 18.1307)">
<stop offset="0.794" stop-color="#454140" stop-opacity="0"/>
<stop offset="1" stop-color="#454140"/>
</radialGradient>
</defs>
</svg>
