<svg width="54" height="54" viewBox="0 0 54 54" fill="none" xmlns="http://www.w3.org/2000/svg">
<g clip-path="url(#clip0_403_205)">
<path d="M45.5625 39.5719C45.5625 49.7813 37.2937 49.7812 27 49.7812C16.7063 49.7812 8.4375 49.7813 8.4375 39.5719C8.4375 29.3625 16.7906 12.6562 27 12.6562C37.2094 12.6562 45.5625 29.2781 45.5625 39.5719Z" fill="#DBB471"/>
<path opacity="0.5" d="M45.5629 39.5719C45.5629 36.1125 44.6348 31.8938 42.9473 27.8438C43.2848 30.4594 42.6098 35.1 34.5941 36.8719C23.2035 39.3188 29.1098 42.525 24.6379 42.9469C20.841 43.2844 10.716 41.7656 8.69102 36.0281C8.52227 37.2938 8.35352 38.475 8.35352 39.6562C8.43789 49.7812 16.791 49.7812 27.0004 49.7812C37.2098 49.7812 45.5629 49.7813 45.5629 39.5719Z" fill="#89664C"/>
<path d="M31.9785 34.6781C31.641 32.9906 30.2067 32.4843 28.6879 32.4V30.0374C29.1098 30.2062 29.616 30.4593 29.9535 30.7125C30.6285 31.1343 31.3035 30.0374 30.6285 29.6156C30.0379 29.2781 29.3629 28.9406 28.6879 28.6875V25.9031C28.6879 25.0593 27.4223 25.0593 27.4223 25.9031V28.3499C26.7473 28.2656 26.0723 28.2656 25.3973 28.3499C25.3129 27.7593 25.1442 27.1687 24.9754 26.5781C24.8067 25.7343 23.541 26.0718 23.7942 26.9156C23.9629 27.5062 24.0473 28.0968 24.216 28.6875C24.1317 28.6875 24.1317 28.6874 24.0473 28.7718C22.3598 29.4468 21.2629 31.1343 22.5285 32.7374C23.1192 33.4968 23.8785 33.75 24.7223 33.9187C24.8067 35.0156 24.8067 36.1124 24.8067 37.2093C24.216 36.8718 23.7098 36.3656 23.2879 35.9437C22.6973 35.3531 21.8535 36.2812 22.3598 36.8718C23.1192 37.7156 23.9629 38.3062 24.8067 38.7281C24.8067 39.6562 24.891 40.5843 24.9754 41.5125C25.0598 42.3562 26.3254 42.3562 26.241 41.5125C26.1567 40.6687 26.0723 39.9093 26.0723 39.0656C26.5785 39.1499 27.0848 39.15 27.591 39.15C27.6754 39.9937 27.7598 40.8375 27.8442 41.7656C27.9285 42.6093 29.1942 42.6093 29.1098 41.7656C29.0254 40.8375 28.941 39.9093 28.8567 38.8968C30.7129 38.2218 32.4004 36.7874 31.9785 34.6781V34.6781ZM27.4223 29.6156V32.4C27.0004 32.4 26.6629 32.4843 26.3254 32.4843H25.9035L25.6504 29.4468C26.241 29.4468 26.8317 29.5312 27.4223 29.6156ZM24.3848 32.3156C24.0473 32.2312 23.7098 31.9781 23.3723 31.7249C22.6129 30.9656 23.7098 30.2906 24.3848 29.9531C24.4692 30.7968 24.5535 31.5562 24.6379 32.4C24.5535 32.4 24.4692 32.3999 24.3848 32.3156V32.3156ZM27.1692 37.7156C26.7473 37.8 26.4098 37.7156 26.0723 37.6312C25.9879 36.3656 25.9879 35.1 25.9879 33.75C26.4942 33.75 27.0004 33.6656 27.5067 33.6656C27.5067 35.0156 27.591 36.2812 27.591 37.6312C27.4223 37.7156 27.3379 37.7156 27.1692 37.7156ZM29.9535 36.7874C29.616 37.0406 29.1942 37.2093 28.8567 37.3781C28.7723 36.1124 28.7723 34.9312 28.7723 33.6656H29.1942C30.7973 34.0031 31.2192 35.7749 29.9535 36.7874" fill="#89664C"/>
<path d="M28.6877 46.4062H26.7471V49.7812L34.5939 54L52.3127 48.5156V45.5625L45.8158 41.7656L28.6877 46.4062Z" fill="#699635"/>
<path d="M27 44.4656C27 44.4656 29.025 47.7562 34.7625 50.625C34.7625 50.625 43.7063 50.2031 52.3125 44.4656C52.3125 44.4656 47.3344 42.0187 45.9 38.8125C45.9 38.8125 42.525 43.5375 27 44.4656Z" fill="#83BF4F"/>
<path d="M23.2027 46.3219L25.059 46.2375L25.3121 49.3594L17.9715 54L0.337109 50.2032L0.0839844 47.4188L6.07461 43.2844L23.2027 46.3219Z" fill="#699635"/>
<path d="M24.6375 44.3812C24.6375 44.3812 22.8656 47.6719 17.55 50.7938C17.55 50.7938 8.85938 51.0469 0 46.4063C0 46.4063 4.725 43.7063 5.82188 40.5C5.82188 40.5 9.53438 44.7187 24.6375 44.3812" fill="#83BF4F"/>
<path d="M20.4186 45.3095C20.4186 45.3095 20.1654 45.9845 21.3467 46.0689L18.2248 48.6845C18.2248 48.6845 16.3686 48.5157 15.9467 49.7814C15.9467 49.7814 8.35293 48.9376 3.45918 46.7439C3.45918 46.7439 4.47168 45.9845 3.20605 45.4782C3.20605 45.4782 4.64043 44.4657 4.97793 43.5376C4.97793 43.5376 6.32793 43.7064 6.7498 42.6939C6.91855 42.6095 11.9811 45.647 20.4186 45.3095V45.3095Z" stroke="#699635" stroke-miterlimit="10"/>
<path d="M7.42539 46.4906C8.31077 46.4906 9.02852 45.9995 9.02852 45.3937C9.02852 44.788 8.31077 44.2969 7.42539 44.2969C6.54001 44.2969 5.82227 44.788 5.82227 45.3937C5.82227 45.9995 6.54001 46.4906 7.42539 46.4906Z" fill="#699635"/>
<path d="M16.0311 44.0437C16.0311 44.0437 14.0904 46.5749 9.87168 50.0343L10.1248 52.3124L7.17168 51.6374L7.00293 49.1905C7.00293 49.1905 11.3061 45.2249 12.2342 43.2843C12.1498 43.2843 13.6686 43.7905 16.0311 44.0437ZM35.5217 43.453C35.5217 43.453 36.2811 45.478 42.0186 49.1905V51.6374L45.3092 50.6249V48.0937C45.3092 48.0937 41.3436 45.3093 38.9811 42.5249L35.5217 43.453" fill="#F9F3D9"/>
<path d="M30.7125 40.7532L28.8563 40.6688L28.6875 44.1282L36.1969 48.9376L53.8312 44.1282L53.9156 41.0907L47.7562 36.7876L30.7125 40.7532Z" fill="#699635"/>
<path d="M29.1934 38.6437C29.1934 38.6437 31.0496 42.1875 36.534 45.3937C36.534 45.3937 45.309 45.3938 53.9996 39.9938C53.9996 39.9938 49.1902 37.2094 48.009 33.75C48.009 33.75 44.3809 38.475 29.1934 38.6437" fill="#83BF4F"/>
<path d="M32.9906 39.572C32.9906 39.572 33.4125 40.247 32.0625 40.5001L35.6063 43.2845C35.6063 43.2845 37.6313 42.7782 38.3063 43.9595C38.3063 43.9595 46.7438 42.4407 50.625 40.4157C50.625 40.4157 49.3594 39.8251 50.625 39.0657C50.625 39.0657 49.1062 37.8001 48.5156 36.9563C48.5156 36.9563 47.0813 37.3782 46.3219 36.3657C46.3219 36.4501 43.2844 39.1501 32.9906 39.572V39.572Z" stroke="#699635" stroke-miterlimit="10"/>
<path d="M39.4875 41.6812C39.15 42.1031 38.0531 42.2718 37.125 42.0187C36.1969 41.7656 35.775 41.1749 36.1125 40.7531C36.45 40.3312 37.5469 40.1624 38.475 40.4156C39.4031 40.6687 39.825 41.1749 39.4875 41.6812Z" fill="#699635"/>
<path d="M37.7998 37.9687C37.7998 37.9687 39.8248 40.6687 44.1279 44.2968L44.0436 46.828L46.9967 45.9843L47.0811 43.2843C47.0811 43.2843 42.6936 39.0655 41.5967 37.0405C41.6811 37.0405 40.2467 37.6312 37.7998 37.9687Z" fill="#F9F3D9"/>
<path d="M38.8125 1.6875C38.8125 6.83437 32.1469 15.1875 27 15.1875C21.8531 15.1875 15.1875 7.67812 15.1875 2.53125C15.1875 -2.61562 15.9469 2.53125 21.0938 2.53125C21.8531 2.53125 25.3969 0 27 0C28.0969 0 31.2188 2.53125 32.9062 2.53125C37.3781 2.53125 38.8125 -2.19375 38.8125 1.6875Z" fill="#DBB471"/>
<path d="M25.4812 11.2219C24.9749 11.5594 22.5281 11.3062 21.7687 11.8969C20.7562 12.6562 22.1906 14.4281 21.1781 15.525C19.1531 17.55 17.5499 19.8281 18.0562 21.0937C18.8999 23.2875 20.5031 17.0437 21.9374 19.4062C23.3718 21.7687 23.1187 17.8031 25.3124 19.8281C27.5062 21.8531 25.6499 16.2 27.7593 18.6469C29.8687 21.0937 29.9531 23.8781 31.4718 23.8781C33.2437 23.8781 29.6156 17.2125 31.9781 18.8156C34.3406 20.4187 36.9562 19.8281 34.5937 17.3812C33.8343 16.6219 32.8218 15.2719 31.6406 14.0906C31.2187 13.6687 31.5562 11.475 31.1343 11.1375C30.6281 10.7156 29.3624 12.0656 28.8562 11.8125C27.8437 11.3062 28.1812 12.2344 26.6624 12.4875C25.6499 12.825 26.4937 10.5469 25.4812 11.2219" fill="#89664C"/>
<path d="M15.778 16.2C19.0686 13.0781 25.0593 14.85 28.603 16.3687C32.0624 17.8875 34.1718 13.0781 31.978 10.6312C30.7124 9.19683 28.6874 10.8843 27.928 11.8968C27.0843 12.9093 26.4093 14.0062 25.4811 15.0187C24.1311 16.5375 20.8405 15.2718 21.853 13.1625C22.9499 10.9687 27.5905 13.5 29.1093 13.9218C32.0624 14.7656 35.1843 15.1031 38.1374 14.0062C39.1499 13.6687 38.728 11.9812 37.7155 12.4031C34.4249 13.5843 31.1343 12.825 28.0124 11.8125C26.4093 11.3062 23.878 9.9562 22.1905 10.7156C17.3811 12.9937 21.853 19.4906 25.903 16.9593C26.8311 16.3687 27.4218 15.4406 28.0968 14.5968C28.5186 14.0906 30.628 10.8843 31.1343 12.4875C31.3874 13.3312 31.1343 14.85 30.2061 15.1031C29.6155 15.3562 28.4343 14.5125 27.8436 14.3437C26.7468 13.9218 25.6499 13.5843 24.4686 13.3312C21.3468 12.6562 17.128 12.825 14.6811 15.1031C13.8374 15.7781 15.0186 16.9593 15.778 16.2" fill="#E8E8E8"/>
<path d="M37.8 0.421875C36.9562 1.09688 35.4375 2.53125 32.9062 2.53125C31.2188 2.53125 28.0969 0 27 0C25.3969 0 21.8531 2.53125 21.0938 2.53125C18.3094 2.53125 16.7906 1.09688 16.0312 0.50625C16.0312 0.50625 16.9594 4.30313 19.8281 6.24375C21.9375 7.59375 21.6844 5.99063 22.7812 4.47188C23.8781 2.95313 24.6375 2.19375 26.5781 5.99062C27.5906 8.1 29.5312 0.253125 31.05 2.78437C33.8344 7.425 34.8469 4.89375 37.8 0.421875Z" fill="#89664C"/>
<path d="M44.2126 44.2125L44.1283 46.7437L47.0814 45.9L47.1658 43.2C47.1658 43.2843 45.3939 43.9593 44.2126 44.2125ZM42.0189 49.275V51.7218L45.3095 50.7093V48.1781C45.2251 48.0937 44.3814 48.6 42.0189 49.275V49.275ZM9.87202 49.95L10.1251 52.3125L7.17202 51.6375L7.00327 49.1906C6.91889 49.1906 8.10014 49.6125 9.87202 49.95" fill="#DBB471"/>
</g>
<defs>
<clipPath id="clip0_403_205">
<rect width="54" height="54" fill="white"/>
</clipPath>
</defs>
</svg>
