<svg width="54" height="54" viewBox="0 0 54 54" fill="none" xmlns="http://www.w3.org/2000/svg">
<path d="M5.0625 30.375H48.9375C48.9375 6.75 45.5625 1.6875 27 1.6875C8.4375 1.6875 5.0625 6.75 5.0625 30.375Z" fill="#594640"/>
<path d="M47.0812 25.2282C46.9125 26.1563 46.7437 27 46.4906 27.5063C45.9844 28.35 45.0563 28.8563 45.0563 28.8563C45.0563 28.8563 45.3094 27.0844 45.225 24.6375C44.2125 9.95629 43.3687 14.0063 27 14.0063C10.6313 14.0063 9.7875 9.95629 8.775 24.5532C8.69062 27 8.94375 28.8563 8.94375 28.8563C8.94375 28.8563 8.01562 28.35 7.50937 27.5063C7.25625 27 7.0875 26.1563 6.91875 25.2282C5.4 24.8063 3.375 25.1438 3.375 29.5313C3.375 32.2313 4.3875 34.5094 7.84688 34.7625C8.94375 43.3688 14.0063 47.7563 22.3594 51.5532C24.6375 52.5657 29.3625 52.5657 31.6406 51.5532C40.0781 47.7563 45.0563 43.3688 46.1531 34.7625C49.6125 34.5094 50.625 32.3157 50.625 29.5313C50.625 25.1438 48.6 24.8063 47.0812 25.2282Z" fill="#FFE1BD"/>
<path d="M34.5938 41.2594C34.5938 44.1281 30.7969 45.5625 27 45.5625C23.2031 45.5625 19.4062 44.1281 19.4062 41.2594C19.4062 41.2594 19.4062 40.5 20.1656 40.5H33.8344C34.5937 40.5 34.5938 41.2594 34.5938 41.2594" fill="#664E27"/>
<path d="M16.875 24.1313C12.6562 24.1313 10.9688 25.6501 10.9688 27.1688C10.9688 28.6876 10.9688 30.8813 16.5375 30.8813C21.9375 30.8813 22.7812 30.2063 22.7812 27.9282C22.7812 26.4095 21.0938 24.1313 16.875 24.1313Z" fill="#F5F5F5"/>
<path d="M17.2969 30.4595C19.3938 30.4595 21.0938 28.7596 21.0938 26.6626C21.0938 24.5656 19.3938 22.8657 17.2969 22.8657C15.1999 22.8657 13.5 24.5656 13.5 26.6626C13.5 28.7596 15.1999 30.4595 17.2969 30.4595Z" fill="#664E27"/>
<path d="M18.5625 26.6626C18.5625 27.3376 17.9719 27.9282 17.2969 27.9282C16.6219 27.9282 16.0312 27.3376 16.0312 26.6626C16.0312 25.9876 16.6219 25.397 17.2969 25.397C17.9719 25.397 18.5625 25.9876 18.5625 26.6626Z" fill="#231F20"/>
<path d="M10.9688 27.0844C10.9688 21.1781 22.7812 21.1781 22.7812 27.9281C21.0938 22.8656 12.6562 22.8656 10.9688 27.0844Z" fill="#664E27"/>
<path d="M37.125 24.1313C41.3438 24.1313 43.0312 25.6501 43.0312 27.1688C43.0312 28.6876 43.0313 30.8813 37.4625 30.8813C32.0625 30.8813 31.2188 30.2063 31.2188 27.9282C31.2188 26.4095 32.9062 24.1313 37.125 24.1313Z" fill="#F5F5F5"/>
<path d="M36.7031 30.4595C38.8001 30.4595 40.5 28.7596 40.5 26.6626C40.5 24.5656 38.8001 22.8657 36.7031 22.8657C34.6062 22.8657 32.9062 24.5656 32.9062 26.6626C32.9062 28.7596 34.6062 30.4595 36.7031 30.4595Z" fill="#664E27"/>
<path d="M35.4375 26.6626C35.4375 27.3376 36.0281 27.9282 36.7031 27.9282C37.3781 27.9282 37.9688 27.3376 37.9688 26.6626C37.9688 25.9876 37.3781 25.397 36.7031 25.397C36.0281 25.397 35.4375 25.9876 35.4375 26.6626Z" fill="#231F20"/>
<path d="M43.0312 27.0844C43.0312 21.1781 31.2188 21.1781 31.2188 27.9281C32.9062 22.8656 41.3438 22.8656 43.0312 27.0844Z" fill="#664E27"/>
<path d="M27.0001 37.9688C23.4563 37.9688 21.6845 35.4375 23.4563 35.4375H30.5438C32.3157 35.4375 30.5438 37.9688 27.0001 37.9688Z" fill="#E6B796"/>
</svg>
