<svg width="54" height="54" viewBox="0 0 54 54" fill="none" xmlns="http://www.w3.org/2000/svg">
<path d="M49.7249 30.225C49.7249 28.2 48.2249 26.475 46.2749 26.1L46.6499 18.6C46.6499 7.575 37.4999 0.75 26.3999 0.75C15.3749 0.75 7.2749 7.575 7.2749 18.6L7.7249 26.1C5.7749 26.475 4.2749 28.125 4.2749 30.15C4.2749 32.325 5.9999 34.125 8.1749 34.275L8.2499 35.25C8.2499 45.6 16.6499 54 26.9999 54C37.3499 54 45.7499 45.6 45.7499 35.25L45.8249 34.35C47.9999 34.2 49.7249 32.4 49.7249 30.225Z" fill="#EDC0A2"/>
<path d="M25.3501 52.0499C21.0751 52.0499 17.1001 50.7749 13.7251 48.5249C17.1001 51.8999 21.8251 53.9999 27.0001 53.9999C37.3501 53.9999 45.7501 45.5999 45.7501 35.2499L45.8251 34.2749C44.4001 44.3249 35.7751 52.0499 25.3501 52.0499Z" fill="#E5AB83"/>
<path d="M17.5498 29.925C17.5498 30.975 16.7248 31.8 15.6748 31.8C14.6248 31.8 13.7998 30.975 13.7998 29.925V27.3C13.8748 26.325 14.6998 25.575 15.6748 25.575C16.6498 25.575 17.4748 26.325 17.5498 27.3V29.925ZM40.1248 27.225C40.0498 26.25 39.2248 25.5 38.2498 25.5C37.2748 25.5 36.4498 26.25 36.3748 27.225V29.85C36.3748 30.9 37.1998 31.725 38.2498 31.725C39.2998 31.725 40.1248 30.9 40.1248 29.85V27.225Z" fill="#2B3B47"/>
<path opacity="0.96" d="M15.2999 27.375C15.2999 27.15 15.0749 26.925 14.8499 26.925C14.6249 26.925 14.3999 27.15 14.3999 27.375V28.05C14.3999 28.275 14.6249 28.5 14.8499 28.5C15.0749 28.5 15.2999 28.275 15.2999 28.05V27.375ZM38.0249 27.375C38.0249 27.15 37.7999 26.925 37.5749 26.925C37.3499 26.925 37.1249 27.15 37.1249 27.375V28.05C37.1249 28.275 37.3499 28.5 37.5749 28.5C37.7999 28.5 38.0249 28.275 38.0249 28.05V27.375Z" fill="#959DA3"/>
<path d="M30.5248 0.149951L24.5248 0.0749512C11.3248 0.149951 7.0498 8.92495 7.0498 17.175V26.7C7.0498 28.2 8.47481 26.775 8.69981 25.2C9.07481 23.025 8.92481 14.925 10.7248 11.85C11.6998 10.2 13.8748 12.975 15.5998 14.325C18.9748 17.175 37.8748 20.55 36.2998 18.6C35.9248 18.15 35.5498 17.7 35.1748 17.175C41.6248 19.725 44.3998 23.55 44.9248 24.6C45.8998 26.4 46.9498 28.5 46.9498 26.7V17.7C46.9498 10.5 42.8248 0.749951 30.5248 0.149951Z" fill="#332A23"/>
<path d="M27.0001 37.1999C25.7251 37.1999 24.6001 36.5999 23.9251 35.4749C23.7001 35.0999 23.7751 34.6499 24.1501 34.4249C24.5251 34.1999 24.9751 34.2749 25.2001 34.6499C25.5751 35.2499 26.2501 35.6249 27.0001 35.6249C27.7501 35.6249 28.4251 35.2499 28.8001 34.6499C29.0251 34.2749 29.4751 34.1999 29.8501 34.4249C30.2251 34.6499 30.3001 35.0999 30.0751 35.4749C29.4001 36.5249 28.2751 37.1999 27.0001 37.1999V37.1999ZM30.5251 44.6999C30.9001 44.3999 30.9751 43.9499 30.6751 43.5749C30.3751 43.1999 29.9251 43.1249 29.5501 43.4249C27.9751 44.6249 25.9501 44.6249 24.3751 43.4249C24.0001 43.1249 23.5501 43.1999 23.2501 43.5749C22.9501 43.9499 23.0251 44.3999 23.4001 44.6999C24.4501 45.5249 25.7251 45.8999 27.0001 45.8999C28.2751 45.8999 29.4751 45.5249 30.5251 44.6999V44.6999Z" fill="#E5AB83"/>
<path d="M17.7752 24.0001C17.7752 24.0001 17.7002 24.0001 17.5502 23.9251C17.4002 23.9251 17.2502 23.8501 17.0252 23.8501C16.5752 23.7751 15.9752 23.7001 15.3752 23.7001C14.7752 23.7001 14.2502 23.7751 13.8752 23.9251C13.8002 23.9251 13.7252 24.0001 13.6502 24.0001C13.5752 24.0001 13.5752 24.0751 13.5002 24.0751L13.4252 24.1501L13.2002 24.3001C12.8252 24.5251 12.3002 24.4501 12.0752 24.0001C11.8502 23.6251 11.9252 23.2501 12.2252 22.9501L12.4502 22.7251C12.5252 22.6501 12.6002 22.5751 12.7502 22.5001C12.9002 22.4251 12.9752 22.3501 13.1252 22.2751C13.7252 21.9751 14.4752 21.8251 15.2252 21.6751C15.9752 21.6001 16.6502 21.6001 17.1752 21.6001C17.4752 21.6001 17.7002 21.6001 17.8502 21.6751H18.0752C18.7502 21.7501 19.2002 22.2751 19.1252 22.9501C19.0502 23.6251 18.5252 24.0751 17.8502 24.0001C17.8502 24.0751 17.8502 24.0001 17.7752 24.0001V24.0001ZM35.7002 21.7501C35.1002 21.9001 34.6502 22.5001 34.8002 23.1001C34.9502 23.7001 35.5502 24.1501 36.1502 24.0001C36.1502 24.0001 36.2252 24.0001 36.3752 23.9251C36.5252 23.9251 36.6752 23.8501 36.9002 23.8501C37.3502 23.7751 37.9502 23.7001 38.5502 23.7001C39.1502 23.7001 39.6752 23.7751 40.0502 23.9251C40.1252 23.9251 40.2002 24.0001 40.2752 24.0001C40.3502 24.0001 40.3502 24.0751 40.4252 24.0751L40.5002 24.1501L40.7252 24.3001C41.0252 24.5251 41.4752 24.4501 41.7752 24.1501C42.0752 23.8501 42.0752 23.3251 41.7002 23.0251L41.4752 22.8001C41.4002 22.7251 41.3252 22.6501 41.1752 22.5751C41.0252 22.5001 40.9502 22.4251 40.8002 22.3501C40.2002 22.0501 39.4502 21.9001 38.7002 21.7501C37.9502 21.6751 37.2752 21.6751 36.7502 21.6751C36.4502 21.6751 36.2252 21.6751 36.0752 21.7501H35.7002ZM37.5752 43.7251C37.5002 43.3501 37.5002 42.9751 37.2752 42.5251L37.0502 41.8501C36.9752 41.6251 36.8252 41.4001 36.6752 41.1751L36.2252 40.5001C36.0752 40.2751 35.9252 40.0501 35.7002 39.9001C35.3252 39.5251 34.8752 39.1501 34.4252 38.8501C33.9752 38.5501 33.4502 38.3251 33.0002 38.1751C32.4752 38.0251 32.0252 38.0251 31.5752 37.9501C30.6752 37.9501 29.8502 38.1001 29.1752 38.2501C28.5002 38.4001 27.9002 38.6251 27.6002 38.7751C27.2252 39.0001 27.0002 39.1501 27.0002 39.1501C27.0002 39.1501 26.7752 39.0001 26.4002 38.7751C26.0252 38.5501 25.5002 38.3251 24.8252 38.1751L23.7002 37.9501C23.3252 37.8751 22.8752 37.8751 22.4252 37.8751C21.9752 37.9501 21.4502 37.9501 21.0002 38.1001C20.5502 38.2501 20.0252 38.5501 19.5752 38.7751C19.1252 39.0751 18.6752 39.4501 18.3002 39.8251C18.0752 39.9751 17.9252 40.2001 17.7752 40.4251C17.6252 40.6501 17.4752 40.8001 17.3252 41.1001C17.1752 41.3251 17.1002 41.5501 16.9502 41.7751L16.7252 42.4501C16.5752 42.8251 16.5002 43.2751 16.4252 43.6501C16.3502 44.0251 16.3502 44.3251 16.3502 44.6251C16.3502 44.9251 16.4252 45.1501 16.4252 45.3751C16.5002 45.7501 16.5752 45.9751 16.5752 45.9751L17.0252 45.5251C17.1752 45.3751 17.3252 45.2251 17.4752 45.0001C17.7002 44.8501 17.8502 44.6251 18.0752 44.4001C18.3002 44.2501 18.5252 44.0251 18.8252 43.8751C18.9752 43.8001 19.1252 43.7251 19.2002 43.6501L19.6502 43.4251C19.9502 43.2751 20.2502 43.2001 20.5502 43.1251C20.8502 43.0501 21.1502 43.0501 21.4502 42.9751C21.7502 42.9751 22.0502 42.9001 22.3502 42.9001C22.6502 42.8251 22.9502 42.7501 23.2502 42.6001C23.8502 42.3751 24.5252 42.1501 25.0502 41.9251C25.6502 41.7001 26.1002 41.4001 26.4752 41.2501C26.7752 41.1001 27.0002 40.9501 27.0002 40.8751C27.0752 40.8751 27.2252 41.0251 27.5252 41.1751C27.9002 41.3251 28.3502 41.5501 28.9502 41.7751C29.4752 42.0001 30.0752 42.2251 30.7502 42.5251C31.0502 42.6751 31.3502 42.7501 31.6502 42.8251C31.9502 42.9001 32.2502 42.9751 32.5502 42.9751C32.8502 42.9751 33.1502 43.0501 33.4502 43.1251L34.3502 43.3501L34.8002 43.5751C34.9502 43.6501 35.1002 43.7251 35.1752 43.8001C35.4752 43.9501 35.7002 44.1751 35.9252 44.3251C36.1502 44.5501 36.3752 44.7001 36.5252 44.9251C36.7502 45.0751 36.8252 45.3001 36.9752 45.4501L37.4252 45.9001C37.4252 45.9001 37.5002 45.6751 37.5752 45.3001C37.5752 45.0751 37.6502 44.8501 37.6502 44.5501C37.6502 44.4001 37.6502 44.1001 37.5752 43.7251V43.7251Z" fill="#68442A"/>
</svg>
