<svg width="54" height="54" viewBox="0 0 54 54" fill="none" xmlns="http://www.w3.org/2000/svg">
<path d="M27.0844 7.50928C27.0844 7.50928 27 7.50928 27.0844 7.50928H26.9156C5.82187 7.50928 1.6875 14.9343 1.6875 26.578L2.44688 34.5093H51.6375L52.3969 26.578C52.3125 14.9343 48.1781 7.50928 27.0844 7.50928" fill="#748A93"/>
<path d="M49.359 31.05C41.6809 28.0125 47.6715 19.6594 47.9246 17.9719C47.9246 17.9719 46.1527 1.6875 26.9996 1.6875C7.84648 1.6875 6.07461 17.9719 6.07461 17.9719C6.32773 19.6594 12.4027 28.0125 4.64023 31.05C4.64023 31.05 1.77148 30.7125 1.77148 34.1719C1.77148 38.3063 4.72461 37.6312 4.72461 37.6312C4.72461 43.9594 10.9684 52.3125 26.9996 52.3125C43.0309 52.3125 49.2746 43.9594 49.2746 37.6312C49.2746 37.6312 52.2277 38.3063 52.2277 34.1719C52.2277 30.7125 49.359 31.05 49.359 31.05Z" fill="#FFE1BD"/>
<path d="M34.3406 44.6343C34.5094 44.6343 34.5938 43.8749 34.5938 43.5374C34.5938 41.3436 31.2188 39.4874 27 39.4874C22.7812 39.4874 19.4062 41.428 19.4062 43.6218C19.4062 43.8749 19.4906 44.6343 19.575 44.6343H34.3406V44.6343ZM14.85 8.26865C16.7906 7.67803 18.8156 7.00303 20.8406 6.58115C22.8656 6.15928 24.975 5.82178 27 5.7374C29.1094 5.65303 31.2188 5.82178 33.2438 6.24365C35.2688 6.66553 37.2938 7.34053 39.15 8.26865C37.125 7.93115 35.1 7.59365 33.075 7.50928C31.05 7.34053 29.025 7.34053 27.0844 7.4249C25.0594 7.50928 23.0344 7.67803 21.0094 7.84678C18.9844 8.01553 16.9594 8.26865 14.85 8.26865V8.26865ZM12.2344 11.8124C14.6813 11.2218 17.0438 10.5468 19.4906 10.1249C21.9375 9.70303 24.4688 9.36553 27 9.28115C29.5312 9.19678 32.0625 9.36553 34.5094 9.7874C37.0406 10.2093 39.4875 10.7999 41.7656 11.8124C39.3187 11.4749 36.8719 11.2218 34.3406 11.053C31.8938 10.8843 29.4469 10.8843 27 10.9687C24.5531 11.053 22.1062 11.2218 19.6594 11.3905C17.2125 11.5593 14.7656 11.8968 12.2344 11.8124Z" fill="#748A93"/>
<path d="M15.0187 33.1593L14.7656 30.6281C15.4406 30.5437 16.3688 30.3749 17.3813 30.2062C22.3594 29.2781 30.6281 27.6749 39.6562 30.7124L38.8125 33.0749C30.4594 30.2062 22.6125 31.7249 17.8875 32.6531C16.7063 32.9062 15.6937 33.0749 15.0187 33.1593Z" fill="#454749"/>
<path d="M16.6221 39.5718C20.816 39.5718 24.2158 36.1719 24.2158 31.978C24.2158 27.7841 20.816 24.3843 16.6221 24.3843C12.4282 24.3843 9.02832 27.7841 9.02832 31.978C9.02832 36.1719 12.4282 39.5718 16.6221 39.5718Z" fill="#454749"/>
<path d="M16.6221 37.0405C19.418 37.0405 21.6846 34.774 21.6846 31.978C21.6846 29.1821 19.418 26.9155 16.6221 26.9155C13.8261 26.9155 11.5596 29.1821 11.5596 31.978C11.5596 34.774 13.8261 37.0405 16.6221 37.0405Z" fill="#B4D7EE"/>
<path d="M37.3779 39.5718C41.5718 39.5718 44.9717 36.1719 44.9717 31.978C44.9717 27.7841 41.5718 24.3843 37.3779 24.3843C33.184 24.3843 29.7842 27.7841 29.7842 31.978C29.7842 36.1719 33.184 39.5718 37.3779 39.5718Z" fill="#454749"/>
<path d="M37.3779 37.0405C40.1739 37.0405 42.4404 34.774 42.4404 31.978C42.4404 29.1821 40.1739 26.9155 37.3779 26.9155C34.582 26.9155 32.3154 29.1821 32.3154 31.978C32.3154 34.774 34.582 37.0405 37.3779 37.0405Z" fill="#B4D7EE"/>
</svg>
