<svg width="54" height="54" viewBox="0 0 54 54" fill="none" xmlns="http://www.w3.org/2000/svg">
<path d="M49.0994 15.9495C49.0994 22.053 39.2054 27 26.9999 27C14.7944 27 4.90039 22.053 4.90039 15.9495C4.90039 9.846 6.59989 3 26.9999 3C47.3999 3 49.0994 9.846 49.0994 15.9495V15.9495Z" fill="#D1D3D4"/>
<path d="M48.2505 20.199C47.7735 20.199 47.322 20.3535 46.8945 20.586C44.8545 9.162 36.729 1.5 27 1.5C17.2695 1.5 9.1455 9.162 7.1055 20.586C6.678 20.355 6.2265 20.2005 5.7495 20.2005C3.4035 20.199 1.5 23.2455 1.5 27C1.5 30.756 3.4035 33.7995 5.7495 33.7995C6.321 33.7995 6.864 33.6135 7.362 33.2865C9.7545 44.361 17.6295 52.5 27 52.5C36.3705 52.5 44.2455 44.361 46.6365 33.285C47.1345 33.6135 47.679 33.7995 48.2505 33.7995C50.5965 33.7995 52.5 30.756 52.5 27C52.5 23.2455 50.5965 20.199 48.2505 20.199V20.199Z" fill="#FFE1BD"/>
<path d="M16.8017 28.5001C16.4634 28.5007 16.1348 28.387 15.8693 28.1773C15.6038 27.9677 15.4169 27.6744 15.3391 27.3452C15.2612 27.0159 15.297 26.67 15.4405 26.3637C15.5841 26.0573 15.8269 25.8085 16.1297 25.6576L19.5302 23.9581C19.8837 23.7986 20.2852 23.7821 20.6506 23.912C21.016 24.0419 21.3169 24.3082 21.4904 24.655C21.6639 25.0018 21.6965 25.4023 21.5814 25.7726C21.4662 26.1429 21.2123 26.4543 20.8727 26.6416L17.4722 28.3411C17.2641 28.4455 17.0346 28.4999 16.8017 28.5001V28.5001ZM37.1987 28.5001C36.9737 28.5001 36.7442 28.4491 36.5297 28.3426L33.1292 26.6431C32.7734 26.465 32.5028 26.1529 32.3771 25.7754C32.2513 25.3979 32.2807 24.9859 32.4587 24.6301C32.6368 24.2742 32.9489 24.0037 33.3264 23.8779C33.7039 23.7522 34.1159 23.7815 34.4717 23.9596L37.8722 25.6591C38.1743 25.8105 38.4164 26.0594 38.5594 26.3656C38.7023 26.6718 38.7376 27.0173 38.6597 27.3461C38.5817 27.6749 38.3951 27.9677 38.1299 28.1772C37.8647 28.3866 37.5366 28.5004 37.1987 28.5001V28.5001Z" fill="#662113"/>
<path d="M39 21H34.5C34.1022 21 33.7206 20.842 33.4393 20.5607C33.158 20.2794 33 19.8978 33 19.5C33 19.1022 33.158 18.7206 33.4393 18.4393C33.7206 18.158 34.1022 18 34.5 18H39C39.3978 18 39.7794 18.158 40.0607 18.4393C40.342 18.7206 40.5 19.1022 40.5 19.5C40.5 19.8978 40.342 20.2794 40.0607 20.5607C39.7794 20.842 39.3978 21 39 21ZM19.5 21H15C14.6022 21 14.2206 20.842 13.9393 20.5607C13.658 20.2794 13.5 19.8978 13.5 19.5C13.5 19.1022 13.658 18.7206 13.9393 18.4393C14.2206 18.158 14.6022 18 15 18H19.5C19.8978 18 20.2794 18.158 20.5607 18.4393C20.842 18.7206 21 19.1022 21 19.5C21 19.8978 20.842 20.2794 20.5607 20.5607C20.2794 20.842 19.8978 21 19.5 21Z" fill="#D1D3D4"/>
<path d="M27.0003 45.4995C23.2893 45.4995 19.6818 43.7175 19.5288 43.6425C19.1727 43.4649 18.9018 43.1531 18.7757 42.7757C18.6495 42.3983 18.6784 41.9863 18.856 41.6302C19.0337 41.2742 19.3455 41.0033 19.7228 40.8771C20.1002 40.751 20.5122 40.7799 20.8683 40.9575C20.8998 40.974 24.0093 42.4995 26.9988 42.4995C30.0108 42.4995 33.0963 40.974 33.1278 40.959C33.4836 40.781 33.8956 40.7516 34.2732 40.8773C34.6507 41.0031 34.9628 41.2736 35.1408 41.6295C35.3188 41.9854 35.3482 42.3974 35.2224 42.7749C35.0967 43.1524 34.8261 43.4645 34.4703 43.6425C34.3188 43.719 30.7128 45.4995 27.0003 45.4995ZM28.5003 37.5H25.5003C25.1025 37.5 24.7209 37.342 24.4396 37.0607C24.1583 36.7794 24.0003 36.3978 24.0003 36C24.0003 35.6022 24.1583 35.2206 24.4396 34.9393C24.7209 34.658 25.1025 34.5 25.5003 34.5H28.5003C28.8981 34.5 29.2796 34.658 29.5609 34.9393C29.8423 35.2206 30.0003 35.6022 30.0003 36C30.0003 36.3978 29.8423 36.7794 29.5609 37.0607C29.2796 37.342 28.8981 37.5 28.5003 37.5Z" fill="#C1694F"/>
</svg>
