<svg width="54" height="54" viewBox="0 0 54 54" fill="none" xmlns="http://www.w3.org/2000/svg">
<path d="M33.1129 41.9634L30.8559 42.1997C30.8559 42.1997 30.6154 48.0131 31.2735 49.2661C31.9275 50.5149 33.9778 50.8186 35.7285 50.633C37.3907 50.4558 37.5089 49.3842 37.2726 48.6122C37.0364 47.8402 35.9648 47.1272 35.0746 46.5914C34.3532 46.1611 34.1845 44.752 34.0664 42.7313C34.0031 41.6681 33.1129 41.9634 33.1129 41.9634ZM23.7304 42.1027L20.3048 42.322C20.3048 42.322 20.4018 45.1149 20.2246 46.1822C20.0095 47.4689 17.6596 47.5322 16.9593 48.5194C16.4235 49.2703 17.0901 50.595 18.5835 50.7764C19.575 50.8945 22.1864 51.0549 23.0765 49.4517C23.8528 48.0469 23.7304 42.1027 23.7304 42.1027Z" fill="#FE8F01"/>
<path d="M12.6438 21.1189C12.6438 21.1189 10.9816 14.2297 16.6052 7.73704C22.2288 1.24439 32.4424 2.26954 37.5893 7.89314C42.7362 13.5167 41.7068 21.5155 41.7068 21.5155C41.7068 21.5155 43.7655 25.3967 46.9338 28.0081C49.0938 29.7927 52.954 32.6783 52.0807 34.5008C51.2116 36.3233 50.3383 35.9267 48.8323 35.8466C47.3262 35.7664 42.8121 33.5516 42.8121 33.5516C42.8121 33.5516 41.7827 44.7945 27.6077 45.1152C13.4327 45.4358 11.2179 33.6275 11.2179 33.6275C11.2179 33.6275 5.35803 35.45 4.40881 35.45C3.4596 35.45 1.80163 35.0324 1.87335 33.155C1.9535 31.1764 5.7546 29.2738 7.33663 27.7719C8.92288 26.2658 11.5343 23.8906 12.6438 21.1189Z" fill="#FFB903"/>
<path d="M36.5141 15.7085C36.598 14.4835 35.801 13.4312 34.7341 13.3582C33.6671 13.2851 32.7342 14.219 32.6504 15.444C32.5665 16.669 33.3635 17.7213 34.4304 17.7944C35.4974 17.8674 36.4303 16.9335 36.5141 15.7085Z" fill="#2E302D"/>
<path d="M19.8517 17.8376C20.9118 17.696 21.6393 16.5946 21.4768 15.3776C21.3142 14.1605 20.3232 13.2886 19.2631 13.4302C18.2031 13.5718 17.4755 14.6732 17.6381 15.8902C17.8006 17.1073 18.7917 17.9792 19.8517 17.8376Z" fill="#2E302D"/>
<path d="M26.9959 17.0182C24.0259 17.0857 23.1358 18.5538 23.1358 19.5115C23.1358 20.6379 25.9877 23.1354 26.9369 23.1354C27.8861 23.1354 30.797 20.524 30.8266 19.5115C30.8561 18.5623 29.6706 16.9591 26.9959 17.0182ZM51.5153 35.3993C51.5153 35.3993 50.5155 36.6776 48.9714 36.7957C47.305 36.9223 44.5755 36.5004 42.9133 35.0154C41.2511 33.5304 40.8377 30.3241 41.4283 29.6702C42.0231 29.0163 42.9133 31.7627 45.2884 33.2351C47.8619 34.8255 51.5153 35.3993 51.5153 35.3993ZM7.81328 33.7076C10.0661 32.6908 13.323 28.7294 13.6942 29.1344C14.3481 29.8474 13.6816 33.1844 11.6734 34.8973C9.65265 36.6185 6.60672 36.8758 4.05015 35.8085C2.64953 35.2221 2.18969 34.5808 1.9914 34.1843C1.51469 33.2266 4.78422 35.0744 7.81328 33.7076Z" fill="#FE8F01"/>
</svg>
