<svg width="54" height="54" viewBox="0 0 54 54" fill="none" xmlns="http://www.w3.org/2000/svg">
<path d="M27 0C12.9165 0 1.5 11.4165 1.5 25.5H1.5435V51C1.5435 52.65 2.8935 54 4.5435 54H49.5C51.15 54 52.5 52.65 52.5 51V25.5C52.5 11.4165 41.0835 0 27 0Z" fill="#AAB8C2"/>
<path d="M27 46.5C38.598 46.5 48 37.098 48 25.5C48 13.902 38.598 4.5 27 4.5C15.402 4.5 6 13.902 6 25.5C6 37.098 15.402 46.5 27 46.5Z" fill="white"/>
<path d="M27 6C37.77 6 46.5 14.73 46.5 25.5C46.5 36.27 37.77 45 27 45C16.23 45 7.5 36.27 7.5 25.5C7.5 14.73 16.23 6 27 6ZM27 3C14.5935 3 4.5 13.0935 4.5 25.5C4.5 37.9065 14.5935 48 27 48C39.4065 48 49.5 37.9065 49.5 25.5C49.5 13.0935 39.4065 3 27 3Z" fill="#66757F"/>
<path d="M28.5 9C28.5 8.60218 28.342 8.22064 28.0607 7.93934C27.7794 7.65804 27.3978 7.5 27 7.5C26.6022 7.5 26.2206 7.65804 25.9393 7.93934C25.658 8.22064 25.5 8.60218 25.5 9V10.5C25.5 10.8978 25.658 11.2794 25.9393 11.5607C26.2206 11.842 26.6022 12 27 12C27.3978 12 27.7794 11.842 28.0607 11.5607C28.342 11.2794 28.5 10.8978 28.5 10.5V9ZM28.5 40.5C28.5 40.1022 28.342 39.7206 28.0607 39.4393C27.7794 39.158 27.3978 39 27 39C26.6022 39 26.2206 39.158 25.9393 39.4393C25.658 39.7206 25.5 40.1022 25.5 40.5V42C25.5 42.3978 25.658 42.7794 25.9393 43.0607C26.2206 43.342 26.6022 43.5 27 43.5C27.3978 43.5 27.7794 43.342 28.0607 43.0607C28.342 42.7794 28.5 42.3978 28.5 42V40.5ZM12 24H10.5C10.1022 24 9.72064 24.158 9.43934 24.4393C9.15804 24.7206 9 25.1022 9 25.5C9 25.8978 9.15804 26.2794 9.43934 26.5607C9.72064 26.842 10.1022 27 10.5 27H12C12.3978 27 12.7794 26.842 13.0607 26.5607C13.342 26.2794 13.5 25.8978 13.5 25.5C13.5 25.1022 13.342 24.7206 13.0607 24.4393C12.7794 24.158 12.3978 24 12 24ZM43.5 24H42C41.6022 24 41.2206 24.158 40.9393 24.4393C40.658 24.7206 40.5 25.1022 40.5 25.5C40.5 25.8978 40.658 26.2794 40.9393 26.5607C41.2206 26.842 41.6022 27 42 27H43.5C43.8978 27 44.2794 26.842 44.5607 26.5607C44.842 26.2794 45 25.8978 45 25.5C45 25.1022 44.842 24.7206 44.5607 24.4393C44.2794 24.158 43.8978 24 43.5 24ZM40.0605 36.4395L39 35.379C38.8607 35.2397 38.6954 35.1293 38.5134 35.0539C38.3315 34.9785 38.1365 34.9397 37.9395 34.9397C37.7425 34.9397 37.5475 34.9785 37.3656 35.0539C37.1836 35.1293 37.0183 35.2397 36.879 35.379C36.7397 35.5183 36.6293 35.6836 36.5539 35.8656C36.4785 36.0475 36.4397 36.2425 36.4397 36.4395C36.4397 36.6365 36.4785 36.8315 36.5539 37.0134C36.6293 37.1954 36.7397 37.3607 36.879 37.5L37.9395 38.5605C38.2208 38.8418 38.6022 38.9998 39 38.9998C39.3978 38.9998 39.7792 38.8418 40.0605 38.5605C40.3418 38.2792 40.4998 37.8978 40.4998 37.5C40.4998 37.1022 40.3418 36.7208 40.0605 36.4395ZM15 35.379L13.9395 36.4395C13.6582 36.7208 13.5002 37.1022 13.5002 37.5C13.5002 37.8978 13.6582 38.2792 13.9395 38.5605C14.2208 38.8418 14.6022 38.9998 15 38.9998C15.3978 38.9998 15.7792 38.8418 16.0605 38.5605L17.121 37.5C17.2603 37.3607 17.3707 37.1954 17.4461 37.0134C17.5215 36.8315 17.5603 36.6365 17.5603 36.4395C17.5603 36.2425 17.5215 36.0475 17.4461 35.8656C17.3707 35.6836 17.2603 35.5183 17.121 35.379C16.9817 35.2397 16.8164 35.1293 16.6344 35.0539C16.4525 34.9785 16.2575 34.9397 16.0605 34.9397C15.8635 34.9397 15.6685 34.9785 15.4866 35.0539C15.3046 35.1293 15.1393 35.2397 15 35.379ZM13.9395 14.5605L15 15.621C15.1393 15.7603 15.3046 15.8707 15.4866 15.9461C15.6685 16.0215 15.8635 16.0603 16.0605 16.0603C16.2575 16.0603 16.4525 16.0215 16.6344 15.9461C16.8164 15.8707 16.9817 15.7603 17.121 15.621C17.2603 15.4817 17.3707 15.3164 17.4461 15.1344C17.5215 14.9525 17.5603 14.7575 17.5603 14.5605C17.5603 14.3635 17.5215 14.1685 17.4461 13.9866C17.3707 13.8046 17.2603 13.6393 17.121 13.5L16.0605 12.4395C15.7792 12.1582 15.3978 12.0002 15 12.0002C14.6022 12.0002 14.2208 12.1582 13.9395 12.4395C13.6582 12.7208 13.5002 13.1022 13.5002 13.5C13.5002 13.8978 13.6582 14.2792 13.9395 14.5605ZM39 15.621L40.0605 14.5605C40.3418 14.2792 40.4998 13.8978 40.4998 13.5C40.4998 13.1022 40.3418 12.7208 40.0605 12.4395C39.7792 12.1582 39.3978 12.0002 39 12.0002C38.6022 12.0002 38.2208 12.1582 37.9395 12.4395L36.879 13.5C36.7397 13.6393 36.6293 13.8046 36.5539 13.9866C36.4785 14.1685 36.4397 14.3635 36.4397 14.5605C36.4397 14.7575 36.4785 14.9525 36.5539 15.1344C36.6293 15.3164 36.7397 15.4817 36.879 15.621C37.0183 15.7603 37.1836 15.8707 37.3656 15.9461C37.5475 16.0215 37.7425 16.0603 37.9395 16.0603C38.1365 16.0603 38.3315 16.0215 38.5134 15.9461C38.6954 15.8707 38.8607 15.7603 39 15.621Z" fill="#292F33"/>
<path d="M13.3724 20.7586C13.2627 20.4829 13.2372 20.1809 13.2992 19.8908C13.3612 19.6006 13.5078 19.3353 13.7206 19.1285C13.9333 18.9217 14.2026 18.7827 14.4944 18.7289C14.7862 18.6752 15.0874 18.7092 15.3599 18.8266L27.5909 24.0916C27.9563 24.249 28.2442 24.545 28.3913 24.9147C28.5385 25.2843 28.5327 25.6972 28.3754 26.0626C28.218 26.428 27.922 26.716 27.5523 26.8631C27.1827 27.0102 26.7698 27.0045 26.4044 26.8471L14.1734 21.5821C13.9923 21.5042 13.8284 21.3914 13.6909 21.2501C13.5535 21.1088 13.4452 20.9418 13.3724 20.7586Z" fill="#DD2E44"/>
</svg>
