<svg width="54" height="54" viewBox="0 0 54 54" fill="none" xmlns="http://www.w3.org/2000/svg">
<path d="M9.85498 49.0725V45.9422C12.9769 45.1406 38.4834 45.9422 44.145 45.9422V49.0725C44.145 50.8612 36.4669 52.3125 27 52.3125C17.5331 52.3125 9.85498 50.8612 9.85498 49.0725Z" fill="#8B5738"/>
<path d="M27 49.0054C36.4689 49.0054 44.145 47.5548 44.145 45.7654C44.145 43.976 36.4689 42.5254 27 42.5254C17.5311 42.5254 9.85498 43.976 9.85498 45.7654C9.85498 47.5548 17.5311 49.0054 27 49.0054Z" fill="#FFB17A"/>
<path d="M27 49.0054C36.4689 49.0054 44.145 47.5548 44.145 45.7654C44.145 43.976 36.4689 42.5254 27 42.5254C17.5311 42.5254 9.85498 43.976 9.85498 45.7654C9.85498 47.5548 17.5311 49.0054 27 49.0054Z" fill="#CC8552"/>
<path opacity="0.75" d="M29.5144 27.6291C29.198 27.4983 29.063 27.2409 29.063 26.8992C29.063 26.5575 29.1684 26.3128 29.4764 26.2073C31.4212 25.4227 41.1919 21.6806 41.1919 10.0242L41.1159 7.99078L12.8587 7.95703L12.8081 10.0959C12.8081 21.398 22.545 25.3889 24.4856 26.1736C24.802 26.3044 25.0003 26.5195 25.0003 26.9034C25.0003 27.2873 24.8358 27.4898 24.5236 27.5953C22.5787 28.38 12.8081 32.122 12.8081 43.7784C12.8587 45.0947 13.4831 46.1283 15.0609 46.5206C17.1829 47.048 21.1275 47.6048 27.9408 47.6048C33.809 47.6048 37.0955 47.1745 38.9222 46.7484C40.7151 46.3308 41.1539 45.2972 41.1834 43.9641L41.1876 43.7067C41.1919 32.4047 31.4592 28.4137 29.5144 27.6291Z" fill="#81D4FA"/>
<path opacity="0.39" d="M41.1161 7.99078L12.8589 7.95703L12.8125 9.86391C12.8125 9.86391 15.8711 11.4333 27.0002 11.4333C38.1292 11.4333 41.1878 9.86391 41.1878 9.86391L41.1161 7.99078Z" fill="#1D44B3"/>
<path d="M9.85498 7.56852V4.24836C12.884 3.84336 39.7701 4.24836 44.145 4.24836V7.56852C44.145 8.98602 36.4669 10.1335 27 10.1335C17.5331 10.1335 9.85498 8.98602 9.85498 7.56852Z" fill="#8B5738"/>
<path d="M27 6.8175C36.4689 6.8175 44.145 5.66911 44.145 4.2525C44.145 2.83589 36.4689 1.6875 27 1.6875C17.5311 1.6875 9.85498 2.83589 9.85498 4.2525C9.85498 5.66911 17.5311 6.8175 27 6.8175Z" fill="#CC8552"/>
<path d="M25.4476 31.3919C25.8948 30.7 25.9834 29.4893 27.3376 29.4893C28.1012 29.4893 39.1586 44.0524 38.3359 45.0143C38.0617 45.3349 37.6567 45.4657 37.2686 45.5753C30.7801 47.4063 20.8745 46.9507 16.6051 45.1661C14.905 44.4574 18.0859 40.3863 18.879 39.416C19.1575 39.0785 23.9669 33.67 25.4476 31.3919Z" fill="#FFCA28"/>
<path d="M27.6117 31.3076C29.198 34.3282 29.6747 36.5768 30.3666 39.9898C30.7209 41.7237 32.0372 46.5246 33.6319 46.3263C34.9144 46.1407 36.142 45.896 37.2642 45.5754C37.6523 45.4657 38.0573 45.3349 38.3316 45.0143C38.5636 44.7401 38.3738 43.4998 36.5175 40.9474C34.927 38.7663 32.6616 35.7204 32.2987 35.0201C30.6703 31.8813 28.1602 29.3881 27.3375 29.4893C26.7511 29.5568 27.2447 30.6073 27.6117 31.3076Z" fill="#E2A610"/>
<path opacity="0.6" d="M18.0986 34.003C16.7781 35.547 15.7867 37.6227 16.1622 39.6266C16.5588 41.7402 18.5247 41.158 19.2081 40.6222C21.385 38.9136 20.7902 36.7241 22.4734 34.2645C22.7603 33.8427 23.9584 32.5222 23.7897 31.6911C23.6884 31.1975 22.5409 30.9444 20.4527 31.9906C19.533 32.4547 18.7778 33.2141 18.0986 34.003ZM19.3178 15.8877C19.8494 17.128 20.8197 19.9419 19.5541 20.4228C18.2884 20.908 16.4364 19.1108 15.5589 17.3052C14.6814 15.4995 14.7616 13.1033 16.0863 13.0653C17.4109 13.0273 18.6133 14.2466 19.3178 15.8877Z" fill="white"/>
</svg>
