<svg width="54" height="54" viewBox="0 0 54 54" fill="none" xmlns="http://www.w3.org/2000/svg">
<path d="M14.3595 13.428C17.9454 10.5549 22.4051 8.99267 27 9C31.7813 9 36.1755 10.656 39.6405 13.428L42.9098 10.1587L46.0913 13.3403L42.822 16.6095C45.2018 19.5888 46.6921 23.1796 47.1213 26.9685C47.5505 30.7574 46.9012 34.5905 45.2481 38.0267C43.5951 41.4628 41.0054 44.3625 37.7771 46.3918C34.5488 48.4212 30.8132 49.4978 27 49.4978C23.1869 49.4978 19.4512 48.4212 16.2229 46.3918C12.9947 44.3625 10.405 41.4628 8.75189 38.0267C7.0988 34.5905 6.44949 30.7574 6.8787 26.9685C7.30791 23.1796 8.79818 19.5888 11.178 16.6095L7.90876 13.3425L11.0903 10.161L14.3595 13.4303V13.428ZM29.25 27V16.8637L18 31.5H24.75V41.625L36 27H29.25ZM18 2.25H36V6.75H18V2.25Z" fill="#D92867"/>
</svg>
