<svg width="38" height="38" fill="none" xmlns="http://www.w3.org/2000/svg"><rect width="38" height="38" rx="6" fill="#B7792A"/><path d="M19.242 19l-3.96-4M10 19h9.242H10zm9.242 0l-3.96 4 3.96-4zM10 11V9.667c0-.708.278-1.386.774-1.886A2.628 2.628 0 0112.64 7h13.203c.7 0 1.372.28 1.867.781.496.5.774 1.178.774 1.886v18.666a2.68 2.68 0 01-.774 1.886c-.495.5-1.166.781-1.867.781H12.641c-.7 0-1.372-.281-1.867-.781A2.68 2.68 0 0110 28.333V27" stroke="#fff" stroke-width="1.5" stroke-linecap="round" stroke-linejoin="round"/></svg>