<svg width="54" height="54" viewBox="0 0 54 54" fill="none" xmlns="http://www.w3.org/2000/svg">
<path d="M45 46.125H9C6.525 46.125 4.5 44.1 4.5 41.625V18.1125C4.5 16.65 5.175 15.3 6.4125 14.4L27 0L47.5875 14.4C48.825 15.1875 49.5 16.65 49.5 18.1125V41.625C49.5 44.1 47.475 46.125 45 46.125Z" fill="#78909C"/>
<path d="M15.75 1.125H38.25V36H15.75V1.125Z" fill="#AED581"/>
<path d="M14.625 0V37.125H39.375V0H14.625ZM37.125 34.875H16.875V2.25H37.125V34.875Z" fill="#558B2F"/>
<path d="M38.25 3.375C38.25 5.2875 37.9125 6.75 36 6.75C34.0875 6.75 32.625 5.2875 32.625 3.375C32.625 1.4625 34.0875 1.125 36 1.125C37.9125 1.125 38.25 1.4625 38.25 3.375ZM18 1.125C19.9125 1.125 21.375 1.4625 21.375 3.375C21.375 5.2875 19.9125 6.75 18 6.75C16.0875 6.75 15.75 5.2875 15.75 3.375C15.75 1.4625 16.0875 1.125 18 1.125Z" fill="#558B2F"/>
<path d="M27 11.25C28.2426 11.25 29.25 10.2426 29.25 9C29.25 7.75736 28.2426 6.75 27 6.75C25.7574 6.75 24.75 7.75736 24.75 9C24.75 10.2426 25.7574 11.25 27 11.25Z" fill="#558B2F"/>
<path d="M27 29.25C30.7279 29.25 33.75 26.2279 33.75 22.5C33.75 18.7721 30.7279 15.75 27 15.75C23.2721 15.75 20.25 18.7721 20.25 22.5C20.25 26.2279 23.2721 29.25 27 29.25Z" fill="#558B2F"/>
<path d="M45 46.125H9C6.525 46.125 4.5 44.1 4.5 41.625V19.125L27 33.75L49.5 19.125V41.625C49.5 44.1 47.475 46.125 45 46.125Z" fill="#CFD8DC"/>
</svg>
