<svg width="54" height="54" viewBox="0 0 54 54" fill="none" xmlns="http://www.w3.org/2000/svg">
<path d="M51.4688 17.6344C46.2375 12.9094 41.0063 8.1 35.775 3.375C28.0969 15.0188 15.1031 25.3969 2.78437 32.9062C2.44687 34.5094 2.10938 36.0281 1.6875 37.5469C7.0875 42.4406 12.4875 47.4188 17.8875 52.3125C30.6281 45.3094 44.1281 35.3531 52.3125 24.0469C52.0594 21.9375 51.7219 19.8281 51.4688 17.6344Z" fill="#699635"/>
<path d="M18.9 46.0687C13.5844 41.175 8.26875 36.2812 2.95312 31.4719C16.2 23.9625 27.3375 13.7531 35.5219 1.6875C40.8375 6.58125 46.1531 11.3906 51.4688 16.2844C43.2844 28.35 32.1469 38.5594 18.9 46.0687Z" fill="#83BF4F"/>
<path d="M17.5502 42.8624C14.0064 39.6562 10.4627 36.3655 6.91895 33.1593C7.17207 32.9905 7.34082 32.9062 7.59395 32.7374C8.26895 32.3155 8.4377 31.5562 7.84707 30.9655L7.34082 30.4593C18.0564 23.878 27.3377 15.4405 34.5939 5.65303L35.1002 6.15928C35.6908 6.66553 36.5346 6.58115 37.0408 5.99053C37.2096 5.82178 37.2939 5.56865 37.4627 5.3999C41.0064 8.60615 44.5502 11.8968 48.0939 15.103C47.9252 15.2718 47.8408 15.5249 47.6721 15.6937C47.1658 16.3687 47.2502 17.2968 47.8408 17.8874L48.3471 18.3937C41.0908 28.0968 31.8096 36.5343 21.0939 43.1155L20.5877 42.6093C19.9971 42.103 18.9846 42.0187 18.2252 42.4405C17.9721 42.6093 17.8033 42.6936 17.5502 42.8624ZM9.19707 33.2437C12.0658 35.8593 14.9346 38.4749 17.8877 41.1749C18.9846 40.8374 20.2502 40.9218 21.2627 41.428C31.0502 35.1843 39.5721 27.4218 46.4064 18.3937C45.8158 17.4655 45.7314 16.2843 46.1533 15.2718C43.2846 12.6562 40.4158 10.0405 37.4627 7.34053C36.7033 8.01553 35.6064 8.0999 34.6783 7.59365C27.8439 16.7062 19.3221 24.4687 9.53457 30.7124C10.0408 31.5562 9.95645 32.5687 9.19707 33.2437Z" fill="#699635"/>
<path d="M16.8748 31.4718C17.8029 31.1343 18.8154 31.2187 19.4904 31.8093C19.0686 32.1468 18.5623 32.4843 18.1404 32.8218C17.9717 32.653 17.5498 32.653 17.3811 32.8218C17.1279 32.9905 17.0436 33.2437 17.2967 33.4124C17.4654 33.5812 17.8873 33.5812 18.1404 33.4124C19.1529 32.7374 20.5873 32.653 21.3467 33.4124C21.9373 34.003 22.0217 34.8468 21.4311 35.5218C21.5998 35.6905 21.7686 35.7749 21.9373 35.9437C21.5154 36.1968 21.0936 36.5343 20.6717 36.7874C20.5029 36.6187 20.3342 36.4499 20.1654 36.3655C19.2373 36.6187 18.2248 36.5343 17.6342 35.9437C18.1404 35.6062 18.5623 35.353 19.0686 35.0155C19.2373 35.1843 19.6592 35.1843 19.9123 35.0155C20.1654 34.8468 20.1654 34.5937 19.9967 34.4249C19.8279 34.2562 19.4904 34.2562 19.2373 34.4249C18.6467 34.8468 17.8873 35.0155 17.2123 34.9312C16.7061 34.8468 16.2842 34.678 15.9467 34.4249C15.3561 33.8343 15.3561 33.0749 15.8623 32.3999C15.6936 32.3155 15.6092 32.1468 15.4404 31.978C15.8623 31.7249 16.2842 31.3874 16.7061 31.1343C16.6217 31.2187 16.7904 31.303 16.8748 31.4718ZM36.4498 13.4155C37.2092 12.9093 38.1373 12.9093 38.7279 13.4999L37.7154 14.7655C37.5467 14.5968 37.2092 14.5968 37.0404 14.8499C36.8717 15.103 36.8717 15.4405 37.0404 15.6093C37.2092 15.778 37.5467 15.778 37.7154 15.5249C38.4748 14.5968 39.7404 14.428 40.4998 15.103C41.0904 15.6937 41.2592 16.6218 40.9217 17.4655C41.0904 17.6343 41.2592 17.7187 41.4279 17.8874C41.0904 18.3093 40.8373 18.6468 40.4998 19.0687C40.3311 18.8999 40.1623 18.7312 39.9936 18.6468C39.2342 19.0687 38.3904 19.0687 37.7998 18.478C38.1373 18.0562 38.5592 17.6343 38.8967 17.2124C39.0654 17.3812 39.4029 17.3812 39.5717 17.128C39.7404 16.8749 39.7404 16.5374 39.5717 16.3687C39.4029 16.1999 39.0654 16.1999 38.8967 16.453C38.4748 16.9593 37.7998 17.2968 37.2092 17.2968C36.7873 17.2968 36.3654 17.128 36.0279 16.8749C35.4373 16.2843 35.2686 15.4405 35.6061 14.5968C35.4373 14.5124 35.3529 14.3437 35.1842 14.1749C35.5217 13.8374 35.8592 13.4155 36.1123 12.9937C36.1123 13.1624 36.2811 13.2468 36.4498 13.4155ZM33.9186 29.953C31.2186 32.3999 26.6623 32.3155 24.0467 29.953C21.4311 27.5062 21.5998 23.7093 24.2998 21.2624C26.9998 18.8155 31.2186 18.5624 33.8342 21.0093C36.5342 23.3718 36.6186 27.5062 33.9186 29.953Z" fill="#699635"/>
<path d="M18.3936 20.6719L34.3404 35.2688C36.1967 33.75 37.8842 32.1469 39.5717 30.4594L23.7092 15.8625C22.0217 17.4657 20.2498 19.0688 18.3936 20.6719Z" fill="#FFDD7D"/>
<path d="M34.4248 41.6813C36.1967 40.3313 37.9686 38.8969 39.6561 37.4625V30.375C37.9686 32.0625 36.1967 33.6656 34.4248 35.1844V41.6813Z" fill="#DBB471"/>
<path d="M10.209 20.8405C11.1371 20.503 11.8965 19.9968 12.6559 19.4062C13.4152 18.8155 14.0902 18.2249 14.8496 17.5499C15.609 16.9593 16.3684 16.2843 17.2121 15.8624C18.0559 15.3562 19.1527 15.103 20.0809 15.2718C19.1527 15.4405 18.309 15.8624 17.5496 16.453C16.7902 16.9593 16.1152 17.6343 15.3559 18.2249C14.5965 18.8155 13.8371 19.4905 12.9934 19.9968C12.1496 20.503 11.1371 20.8405 10.209 20.8405Z" fill="#8D9998"/>
<path d="M33.5809 27.9282C33.5809 27.9282 37.7153 29.1094 47.3341 26.5782C56.9528 24.0469 52.3966 51.7219 34.8466 51.7219C32.9059 51.7219 32.8216 49.275 38.2216 44.8876C38.2216 44.8876 30.6278 46.6594 33.9184 41.0063C33.9184 41.0063 28.5184 41.9344 30.9653 37.6313C30.9653 37.6313 32.0622 34.425 31.0497 30.7969C31.1341 30.7969 31.7247 28.9407 33.5809 27.9282Z" fill="#E8E8E8"/>
<path d="M51.8908 29.2781C52.0595 36.7031 46.1533 49.0218 34.4252 49.0218H34.2564C33.1595 50.7937 33.6658 51.8062 34.847 51.8062C48.1783 51.7218 54.0002 35.8593 51.8908 29.2781Z" fill="#D1D1D1"/>
<path d="M45.8154 33.3281C43.2842 42.4406 33.1592 43.2 33.1592 43.2C32.7373 45.1406 33.5811 45.9844 34.6779 45.9844C38.3904 46.0687 45.3092 39.9094 45.8154 33.3281ZM38.7279 33.3281C32.7373 41.7656 30.6279 38.6437 30.6279 38.6437C29.1092 42.0187 33.0748 42.0187 33.7498 41.2594C35.6904 39.15 38.8123 34.7625 38.7279 33.3281Z" fill="#D1D1D1"/>
<path d="M34.1717 49.275C35.1842 47.925 36.4498 46.8281 37.7154 45.7313C38.9811 44.6344 40.2467 43.5375 41.5123 42.3563C42.6936 41.175 43.8748 39.825 44.7186 38.3063C45.5623 36.7875 45.9842 35.0156 45.8154 33.3281C45.6467 35.0156 45.0561 36.6188 44.1279 37.9688C43.1998 39.3187 42.1029 40.5844 40.9217 41.7656C39.7404 42.9469 38.4748 44.0438 37.2936 45.3094C36.0279 46.4063 34.9311 47.7563 34.1717 49.275ZM33.1592 43.2C33.4967 42.2719 34.0029 41.5125 34.5936 40.7531C35.1842 39.9937 35.7748 39.3188 36.4498 38.5594C37.0404 37.8 37.7154 37.0406 38.1373 36.1969C38.6436 35.3531 38.8967 34.2563 38.7279 33.3281C38.5592 34.2563 38.1373 35.1 37.5467 35.8594C37.0404 36.6188 36.3654 37.2937 35.7748 38.0531C35.1842 38.8125 34.5092 39.5719 34.0029 40.4156C33.4967 41.2594 33.1592 42.2719 33.1592 43.2Z" fill="#8D9998"/>
<path d="M25.4813 20.4187C25.4813 20.4187 24.3 16.2843 26.8312 6.66554C29.3625 -2.95321 1.6875 1.60305 1.6875 19.153C1.6875 21.0937 4.13438 21.178 8.52188 15.778C8.52188 15.778 6.75 23.3718 12.4031 20.0812C12.4031 20.0812 11.475 25.4812 15.7781 23.0343C15.7781 23.0343 18.9844 21.9374 22.6125 22.9499C22.6125 22.8655 24.4688 22.2749 25.4813 20.4187Z" fill="#E8E8E8"/>
<path d="M24.1313 2.10949C16.7063 1.94074 4.3875 7.847 4.3875 19.5751V19.7439C2.61562 20.7564 1.6875 20.3345 1.6875 19.1532C1.6875 5.822 17.55 0.000119328 24.1313 2.10949Z" fill="#D1D1D1"/>
<path d="M20.0809 8.18457C10.9684 10.7158 10.2091 20.8408 10.2091 20.8408C8.26844 21.2627 7.42469 20.4189 7.42469 19.3221C7.34031 15.6096 13.4997 8.69082 20.0809 8.18457ZM20.0809 15.2721C11.6434 21.2627 14.7653 23.3721 14.7653 23.3721C11.3903 24.8908 11.3903 20.9252 12.1497 20.2502C14.2591 18.3096 18.6466 15.1877 20.0809 15.2721Z" fill="#D1D1D1"/>
<path d="M4.13477 19.8281C5.48477 18.8156 6.58164 17.55 7.67852 16.2844C8.77539 15.0187 9.87227 13.7531 11.0535 12.4875C12.2348 11.3062 13.5848 10.125 15.1035 9.28125C16.6223 8.4375 18.3941 8.01562 20.0816 8.18437C18.3941 8.35312 16.791 8.94375 15.441 9.87187C14.091 10.8 12.8254 11.8969 11.6441 13.0781C10.4629 14.2594 9.36602 15.525 8.10039 16.7062C6.91914 17.9719 5.65352 19.0687 4.13477 19.8281Z" fill="#8D9998"/>
</svg>
