<svg width="54" height="54" viewBox="0 0 54 54" fill="none" xmlns="http://www.w3.org/2000/svg">
<path d="M11.8125 6.32812C7.07484 8.11687 5.0625 6.75 5.0625 6.75C5.0625 11.3906 7.17188 11.3906 7.17188 11.3906C7.17188 11.3906 1.6875 15.9848 1.6875 23.625C1.6875 32.4844 6.11297 35.5303 6.11297 35.5303C6.34078 35.7666 6.70781 36.3023 6.70781 36.3023C6.70781 36.3023 6.83438 36.9478 6.83016 37.2769C6.80063 39.5888 6.75 42.1875 9.28125 44.7188C11.8125 47.25 14.8458 47.3428 16.0312 47.6719C18.6384 48.3975 32.9231 48.1191 35.9227 47.9208C39.6563 47.6719 42.7908 46.4147 45.263 43.9425C48.4017 40.8038 47.0728 36.5681 47.2416 36.1083C47.4103 35.6442 52.7766 29.5186 52.3167 21.9417C51.473 8.01984 41.348 8.44172 41.348 8.44172C41.348 8.44172 38.8125 1.6875 28.6875 1.6875C16.875 1.6875 13.4705 5.70375 11.8125 6.32812Z" fill="#312D2D"/>
<path d="M27.0127 48.1402C31.6618 48.1655 36.1758 48.2457 37.6018 47.8534C38.7914 47.5243 42.2635 46.8324 45.128 44.0776C47.288 41.9977 47.7563 39.0826 47.056 36.5007C46.98 36.2138 27.0127 48.1402 27.0127 48.1402V48.1402Z" fill="url(#paint0_radial_403_58)"/>
<path d="M27.0125 48.1402C22.3635 48.1655 17.4571 48.0684 16.0311 47.6719C14.8414 47.3428 11.8124 47.25 9.28113 44.7187C6.74988 42.1875 6.80051 39.5887 6.83004 37.2769C6.83426 36.9858 6.73723 36.4542 6.71191 36.3277L6.74988 36.2812L27.0125 48.1402Z" fill="url(#paint1_radial_403_58)"/>
<path d="M4.87666 34.3111C4.87666 34.3111 8.90135 28.696 10.1037 25.3969C10.3484 24.7303 11.1331 15.9089 10.7576 14.7825C10.0573 12.6647 9.17979 9.87611 7.17166 11.3906C3.37057 14.9977 1.89401 19.0266 1.71682 22.6758C1.40463 29.0925 3.75026 32.9864 4.87666 34.3111Z" fill="url(#paint2_radial_403_58)"/>
<path d="M42.9346 28.6494H11.1126C7.68273 28.6494 4.87305 31.3494 4.87305 34.6527C4.87305 37.956 7.67852 40.656 11.1126 40.656H42.9346C46.3644 40.656 49.1741 37.956 49.1741 34.6527C49.1741 31.3494 46.3644 28.6494 42.9346 28.6494V28.6494Z" fill="#EDC391"/>
<path d="M26.903 3.8855C16.8371 3.8855 7.51367 14.4619 7.51367 29.6789C7.51367 44.8158 17.1198 52.2999 26.903 52.2999C36.6863 52.2999 46.2924 44.8158 46.2924 29.6789C46.2924 14.4619 36.969 3.8855 26.903 3.8855V3.8855Z" fill="#F9DDBD"/>
<path d="M29.0626 36.7581C29.0059 36.7348 28.9463 36.7192 28.8854 36.7117H24.962C24.9029 36.7201 24.8439 36.7328 24.7848 36.7581C24.4304 36.9015 24.2321 37.2685 24.4009 37.6609C24.5696 38.0532 25.3501 39.1543 26.9237 39.1543C28.4973 39.1543 29.2778 38.0532 29.4465 37.6609C29.6153 37.2685 29.417 36.9015 29.0626 36.7581V36.7581Z" fill="#DBA689"/>
<path d="M13.7151 28.8646C13.7151 28.8646 13.7868 28.7591 13.926 28.5819C13.964 28.5397 13.9935 28.4933 14.0441 28.4385C14.1032 28.3794 14.1749 28.3204 14.2466 28.2529C14.3226 28.1896 14.4027 28.1179 14.4871 28.0419C14.5715 27.9702 14.6601 27.9154 14.7529 27.8479C14.8457 27.7846 14.9427 27.7171 15.0482 27.6538C15.1579 27.5947 15.2676 27.5357 15.3815 27.4766C15.4954 27.4133 15.6177 27.3585 15.7485 27.3121C15.8751 27.2615 16.0059 27.2108 16.1409 27.1644C16.4151 27.0885 16.6977 27.0041 16.993 26.9661C17.2884 26.9071 17.5921 26.9029 17.8959 26.8902C18.1996 26.9071 18.5034 26.9113 18.7987 26.9661C19.094 27.0041 19.3809 27.0885 19.6509 27.1644C19.7859 27.2108 19.9166 27.2615 20.0432 27.3121C20.1698 27.3627 20.2921 27.4133 20.4102 27.4766C20.5241 27.5357 20.638 27.599 20.7435 27.6538C20.849 27.7171 20.946 27.7846 21.0388 27.8479C21.1316 27.9154 21.2202 27.9702 21.3004 28.0377C21.3763 28.1052 21.4523 28.1727 21.5198 28.2318C21.5873 28.295 21.6505 28.3499 21.7054 28.4047C21.7602 28.4638 21.8066 28.5186 21.8488 28.5693C22.0176 28.7675 22.1062 28.8857 22.1062 28.8857C22.3888 29.278 22.3002 29.8222 21.9079 30.1007C21.6716 30.2736 21.3763 30.3074 21.1148 30.2188L20.9544 30.164C20.9544 30.164 20.849 30.126 20.6802 30.0543C20.638 30.0374 20.5959 30.0121 20.5452 29.9952C20.4904 29.9783 20.4398 29.9572 20.3807 29.9361C20.2668 29.8897 20.136 29.8433 19.9926 29.8011C19.9209 29.78 19.8491 29.7505 19.7732 29.7294C19.693 29.7125 19.6171 29.6915 19.5327 29.6704C19.4905 29.6577 19.4526 29.6493 19.4104 29.6366C19.3682 29.6282 19.326 29.6197 19.2796 29.6113C19.191 29.5986 19.1066 29.5733 19.018 29.5565C18.8366 29.5354 18.6552 29.4974 18.4654 29.489C18.2755 29.4636 18.0857 29.4721 17.8916 29.4594C17.6976 29.4721 17.5077 29.4636 17.3179 29.489C17.128 29.4974 16.9466 29.5354 16.7652 29.5565C16.6766 29.5733 16.5923 29.5986 16.5037 29.6113L16.3729 29.6366C16.3307 29.6493 16.2927 29.6577 16.2505 29.6704C16.1704 29.6915 16.0902 29.7125 16.0101 29.7294C15.9341 29.7505 15.8624 29.78 15.7907 29.8011C15.719 29.8222 15.6515 29.8433 15.5882 29.8644C15.5334 29.8855 15.4785 29.9024 15.4279 29.9235C15.3773 29.9404 15.3266 29.9572 15.276 29.9699C15.2212 29.991 15.1621 30.0247 15.1157 30.05C14.9174 30.1513 14.7993 30.2019 14.7993 30.2019C14.3437 30.3918 13.8163 30.1766 13.6265 29.7168C13.571 29.5782 13.55 29.4282 13.5655 29.2797C13.5809 29.1313 13.6323 28.9888 13.7151 28.8646V28.8646ZM39.0444 30.1977C39.0444 30.1977 38.9263 30.1471 38.728 30.0458C38.6816 30.0205 38.6226 29.9868 38.5677 29.9657C38.5171 29.953 38.4707 29.9361 38.4159 29.9193C38.3652 29.9024 38.3104 29.8813 38.2555 29.8602C38.1923 29.8391 38.1205 29.818 38.053 29.7969C37.9813 29.7758 37.9096 29.7463 37.8337 29.7252C37.7577 29.7041 37.6776 29.683 37.5932 29.6661C37.551 29.6535 37.513 29.645 37.4709 29.6324C37.4287 29.624 37.3865 29.6155 37.3401 29.6071C37.2515 29.5944 37.1671 29.5691 37.0785 29.5522C36.8971 29.5311 36.7157 29.4932 36.5259 29.4847C36.336 29.4594 36.1462 29.4679 35.9521 29.4552C35.758 29.4679 35.5682 29.4594 35.3784 29.4847C35.1885 29.4932 35.0071 29.5311 34.8257 29.5522C34.7371 29.5691 34.6527 29.5944 34.5641 29.6071L34.4334 29.6324C34.3912 29.645 34.3532 29.6535 34.311 29.6661C34.2309 29.6872 34.1507 29.7083 34.0705 29.7252C33.9946 29.7463 33.9229 29.7758 33.8512 29.7969C33.7077 29.8391 33.5769 29.8855 33.463 29.9319C33.404 29.953 33.3534 29.9783 33.2985 29.991C33.2479 30.0121 33.2057 30.0332 33.1635 30.05C32.999 30.126 32.8935 30.1597 32.8935 30.1597L32.7374 30.2146C32.6294 30.2526 32.515 30.2688 32.4006 30.2624C32.2863 30.256 32.1744 30.2271 32.0713 30.1773C31.9682 30.1275 31.8759 30.0578 31.7998 29.9723C31.7238 29.8867 31.6653 29.787 31.6279 29.6788C31.5309 29.4004 31.5857 29.105 31.7418 28.8815C31.7418 28.8815 31.8262 28.7633 31.9991 28.565C32.0413 28.5144 32.0877 28.4596 32.1426 28.4005C32.1974 28.3457 32.2649 28.2908 32.3282 28.2275C32.3957 28.1685 32.4716 28.101 32.5476 28.0335C32.6277 27.966 32.7163 27.9111 32.8091 27.8436C32.9019 27.7804 32.999 27.7129 33.1044 27.6496C33.2141 27.5905 33.3238 27.5315 33.4377 27.4724C33.5516 27.4091 33.674 27.3543 33.8005 27.3079C33.9271 27.2572 34.0579 27.2066 34.1929 27.1602C34.4671 27.0843 34.7498 26.9999 35.0451 26.9619C35.3404 26.9029 35.6441 26.8986 35.9479 26.886C36.2516 26.9029 36.5554 26.9029 36.8507 26.9619C37.146 26.9957 37.4329 27.0843 37.7029 27.1602C37.8379 27.2066 37.9687 27.2572 38.0952 27.3079C38.2218 27.3585 38.3441 27.4091 38.458 27.4724C38.572 27.5315 38.6859 27.5947 38.7913 27.6496C38.8968 27.7129 38.9938 27.7804 39.0866 27.8436C39.1794 27.9111 39.268 27.966 39.3524 28.0377C39.4368 28.1094 39.5169 28.1811 39.5929 28.2486C39.6646 28.3161 39.7363 28.3752 39.7954 28.4343C39.846 28.4891 39.8798 28.5355 39.9135 28.5777C40.0527 28.7507 40.1244 28.8604 40.1244 28.8604C40.4029 29.2696 40.2974 29.8265 39.8882 30.1049C39.6351 30.2863 39.3102 30.3074 39.0444 30.1977V30.1977Z" fill="#454140"/>
<path d="M17.7015 36.7243C19.2113 36.7243 20.4353 35.4569 20.4353 33.8935C20.4353 32.3301 19.2113 31.0627 17.7015 31.0627C16.1917 31.0627 14.9678 32.3301 14.9678 33.8935C14.9678 35.4569 16.1917 36.7243 17.7015 36.7243Z" fill="#312D2D"/>
<path d="M36.1459 36.7243C37.6557 36.7243 38.8796 35.4569 38.8796 33.8935C38.8796 32.3301 37.6557 31.0627 36.1459 31.0627C34.6361 31.0627 33.4121 32.3301 33.4121 33.8935C33.4121 35.4569 34.6361 36.7243 36.1459 36.7243Z" fill="#312D2D"/>
<path d="M31.6451 41.3312C29.8774 42.3816 24.0893 42.3816 22.3216 41.3312C21.3091 40.7279 20.2713 41.6518 20.6932 42.5715C21.1066 43.4785 24.2665 45.5795 27.0002 45.5795C29.734 45.5795 32.8516 43.4785 33.2651 42.5715C33.6827 41.6476 32.6618 40.7279 31.6451 41.3312V41.3312Z" fill="#444444"/>
<path d="M26.9999 2.95312C18.6426 2.95312 12.2005 7.72875 9.15461 15.39C7.93117 18.4655 6.93555 21.7392 6.93555 25.0467C6.93555 30.7969 8.01555 35.8594 8.01555 35.8594C10.9687 32.0625 10.1249 28.2656 10.1249 28.2656C13.9218 23.2031 25.2365 19.1363 25.3124 18.9844L23.0343 23.5448C22.7474 24.1144 23.2368 24.7978 23.857 24.6628C34.5937 22.3594 39.3102 18.2208 39.3102 18.2208C39.3102 18.2208 39.6562 24.4688 44.2968 28.6875C44.2968 28.6875 44.2968 32.0625 45.5624 35.8594C45.5624 35.8594 47.6718 28.2656 46.229 20.1319C45.2798 14.7909 42.2127 9.65672 37.7746 6.34922C34.657 4.02469 30.8601 2.95312 26.9999 2.95312Z" fill="#312D2D"/>
<path d="M34.2522 2.50175C38.4499 3.8855 41.0275 6.54331 41.8249 9.88034C42.0611 10.8591 41.8881 19.8619 24.4352 9.47112C17.9425 5.60675 19.7186 3.18518 20.478 2.91097C23.448 1.84362 28.8353 0.717216 34.2522 2.50175V2.50175Z" fill="url(#paint3_radial_403_58)"/>
<path d="M49.0389 33.4168C49.0389 33.4168 55.2489 24.625 50.6379 14.7151C47.6299 8.26042 41.5211 8.40807 41.3439 8.43761C41.3439 8.43761 42.0063 10.0576 41.77 11.2937C41.3693 13.4031 39.6143 14.0106 39.6143 14.0106C46.5246 18.2209 44.1705 28.9998 49.0389 33.4168V33.4168Z" fill="url(#paint4_radial_403_58)"/>
<path d="M11.5084 6.44214C7.05766 8.03261 5.08329 6.78386 5.07063 6.75011C4.93563 7.26901 5.22672 10.4204 7.98157 9.43745C9.16704 9.00714 11.4958 6.58979 11.5084 6.44214V6.44214Z" fill="url(#paint5_radial_403_58)"/>
<path d="M5.0537 6.74581C5.0537 6.75003 5.04948 6.75847 5.04948 6.77112C5.03683 7.26472 5.04526 11.0447 7.17151 11.3907L10.382 9.97737C6.37839 9.89722 5.05792 6.73315 5.05792 6.73315C5.05792 6.73315 5.0537 6.74159 5.0537 6.74581V6.74581Z" fill="url(#paint6_radial_403_58)"/>
<defs>
<radialGradient id="paint0_radial_403_58" cx="0" cy="0" r="1" gradientUnits="userSpaceOnUse" gradientTransform="translate(34.3218 39.6445) rotate(151.359) scale(14.2258 9.23963)">
<stop offset="0.728" stop-color="#454140" stop-opacity="0"/>
<stop offset="1" stop-color="#454140"/>
</radialGradient>
<radialGradient id="paint1_radial_403_58" cx="0" cy="0" r="1" gradientUnits="userSpaceOnUse" gradientTransform="translate(19.7256 39.499) rotate(28.6411) scale(14.3452 9.31716)">
<stop offset="0.728" stop-color="#454140" stop-opacity="0"/>
<stop offset="1" stop-color="#454140"/>
</radialGradient>
<radialGradient id="paint2_radial_403_58" cx="0" cy="0" r="1" gradientUnits="userSpaceOnUse" gradientTransform="translate(11.2294 20.1918) rotate(-85.7217) scale(14.4819 12.0698)">
<stop offset="0.699" stop-color="#454140" stop-opacity="0"/>
<stop offset="1" stop-color="#454140"/>
</radialGradient>
<radialGradient id="paint3_radial_403_58" cx="0" cy="0" r="1" gradientUnits="userSpaceOnUse" gradientTransform="translate(25.994 13.2352) rotate(-157.19) scale(19.944 11.2086)">
<stop offset="0.699" stop-color="#454140" stop-opacity="0"/>
<stop offset="1" stop-color="#454140"/>
</radialGradient>
<radialGradient id="paint4_radial_403_58" cx="0" cy="0" r="1" gradientUnits="userSpaceOnUse" gradientTransform="translate(39.862 27.147) rotate(58.4319) scale(20.304 15.0637)">
<stop offset="0.699" stop-color="#454140" stop-opacity="0"/>
<stop offset="1" stop-color="#454140"/>
</radialGradient>
<radialGradient id="paint5_radial_403_58" cx="0" cy="0" r="1" gradientUnits="userSpaceOnUse" gradientTransform="translate(7.19307 5.11737) rotate(4.5657) scale(3.68793 4.3731)">
<stop offset="0.58" stop-color="#454140"/>
<stop offset="1" stop-color="#454140" stop-opacity="0"/>
</radialGradient>
<radialGradient id="paint6_radial_403_58" cx="0" cy="0" r="1" gradientUnits="userSpaceOnUse" gradientTransform="translate(9.07545 9.57406) rotate(-51.6059) scale(3.0461 4.83293)">
<stop offset="0.702" stop-color="#454140" stop-opacity="0"/>
<stop offset="1" stop-color="#454140"/>
</radialGradient>
</defs>
</svg>
