<svg width="54" height="54" viewBox="0 0 54 54" fill="none" xmlns="http://www.w3.org/2000/svg">
<path d="M29.6329 42.5208L50.1149 44.4699C52.0429 44.6555 52.5364 43.5797 52.5364 42.6685L52.5154 41.5632L27.3252 38.011C27.3252 39.2724 28.3504 42.5208 29.6329 42.5208V42.5208Z" fill="#C62828"/>
<path d="M30.3792 41.559L33.6023 41.8416L50.8613 43.508C51.7894 43.508 52.5361 42.7697 52.5361 41.8585L51.6206 13.9051C51.6206 12.9938 50.8697 12.2555 49.9458 12.2555L30.3792 10.4077C29.0967 10.4077 28.0547 11.4329 28.0547 12.6943V39.2724C28.0547 40.5338 29.0925 41.559 30.3792 41.559V41.559Z" fill="#F44336"/>
<path d="M24.3675 42.5209L3.88543 44.47C1.95746 44.6556 1.46387 43.5798 1.46387 42.6686L1.48496 41.5632L26.6751 38.0068C26.6751 39.2725 25.65 42.5209 24.3675 42.5209V42.5209Z" fill="#C62828"/>
<path d="M23.6207 41.5589L20.4229 41.8416L3.13871 43.5122C2.21059 43.5122 1.46387 42.7739 1.46387 41.8626L2.37934 13.9092C2.37934 12.998 3.13027 12.2597 4.05418 12.2597L23.6207 10.4119C24.9032 10.4119 25.9453 11.437 25.9453 12.6984V39.2766C25.9453 40.5337 24.9075 41.5589 23.6207 41.5589V41.5589Z" fill="#F44336"/>
<path d="M33.2228 35.3025H20.7859L20.4062 41.8542L24.2875 42.217C24.2875 42.217 25.1186 44.2926 27.0002 44.2926C28.8817 44.2926 29.7128 42.217 29.7128 42.217L33.5941 41.8542L33.2228 35.3025V35.3025Z" fill="#424242"/>
<path d="M20.4443 42.3688L24.0598 42.0566M33.5562 42.3688L29.9407 42.0566L33.5562 42.3688Z" stroke="#616161" stroke-width="2.5" stroke-miterlimit="10"/>
<path d="M50.4771 13.8459L48.7896 11.5256L26.9997 36.2897L5.20988 11.5256L3.52238 13.8459L3.28613 41.4155C3.28613 41.4155 7.76644 41.9766 13.7529 41.3691C18.9672 40.8417 21.4225 39.4917 23.1649 39.8419C25.2574 40.2638 25.6371 41.5505 25.7046 41.7699C25.8944 42.3774 26.2699 42.8499 26.9997 42.8499C27.7296 42.8499 28.0544 42.5967 28.278 41.8458C28.3455 41.6264 28.7421 40.268 30.8346 39.8461C32.5769 39.4959 35.0322 40.8459 40.2466 41.3733C46.233 41.9808 50.7133 41.4197 50.7133 41.4197L50.4771 13.8459V13.8459Z" fill="#94C6D6"/>
<path d="M48.2207 38.7575L48.2882 27.6243H50.5959L50.714 41.4154C50.714 41.4154 48.8788 40.7024 48.2207 38.7575Z" fill="url(#paint0_linear_403_78)"/>
<path d="M48.3253 32.2693L48.2198 38.7619C48.2198 38.7619 43.1742 38.5004 35.1375 37.1082C29.8809 36.1969 26.9995 39.1163 26.9995 39.1163L26.9531 32.2693H48.3253Z" fill="url(#paint1_linear_403_78)"/>
<path d="M5.67383 32.2693L5.7793 38.7619C5.7793 38.7619 10.8249 38.5004 18.8616 37.1082C24.1182 36.1969 26.9996 39.1163 26.9996 39.1163L26.9532 32.2693H5.67383Z" fill="url(#paint2_linear_403_78)"/>
<path d="M5.77941 38.7575L5.71191 27.6243H3.40004L3.28613 41.4154C3.28613 41.4154 5.11707 40.7024 5.77941 38.7575V38.7575Z" fill="url(#paint3_linear_403_78)"/>
<path d="M48.7901 11.5257C48.7901 11.5257 37.5935 9.42055 32.6787 9.14633C28.0549 8.88899 27.1057 11.243 27.0129 11.5257H26.996C26.899 11.243 25.9498 8.89321 21.326 9.14633C16.4112 9.42055 5.21461 11.5257 5.21461 11.5257L4.7168 38.6945C4.7168 38.6945 18.048 35.9016 21.2754 36.2645C24.5027 36.6273 27.0002 39.1163 27.0002 39.1163V39.1121V39.1163C27.0002 39.1163 29.502 36.6273 32.7293 36.2645C35.9566 35.9016 49.2879 38.6945 49.2879 38.6945L48.7901 11.5257V11.5257Z" fill="#F5F5F5"/>
<path opacity="0.26" d="M22.6209 9.15039L20.3428 36.2348C20.7014 36.2263 21.0178 36.2348 21.2709 36.2643C24.494 36.6229 27 39.1162 27 39.1162L26.9282 11.5255C26.9282 11.5255 26.3798 9.36555 22.6209 9.15039V9.15039Z" fill="#94C6D6"/>
<path opacity="0.5" d="M10.6778 12.7321C9.53875 12.9304 8.60641 13.0992 8.07484 13.192C8.07484 13.4535 8.07484 13.7404 8.07062 14.0484C8.53891 13.964 9.49234 13.791 10.6778 13.5843V12.7321V12.7321ZM20.9463 11.3737V12.2132C23.1948 12.209 24.4394 12.7743 24.8486 13.0021C24.8486 12.652 24.8528 12.3398 24.8528 12.0656C24.1567 11.7534 22.8827 11.3695 20.9463 11.3737ZM19.1153 11.4792C17.2886 11.6648 14.7447 12.0529 12.5087 12.4242V13.2806C14.7278 12.9135 17.2759 12.5212 19.1153 12.3271V11.4792V11.4792ZM14.6223 15.1199C11.897 15.5418 9.16328 16.0312 8.06641 16.2295V17.0859C9.01984 16.9129 11.8169 16.4067 14.6223 15.9721V15.1199ZM19.6975 14.4618C18.8073 14.5335 17.6725 14.677 16.4533 14.8457V15.6979C17.6978 15.5207 18.8622 15.3773 19.765 15.3013C22.7941 15.0524 24.393 15.7949 24.8402 16.0481V15.1073C24.0133 14.7402 22.3553 14.2424 19.6975 14.4618V14.4618ZM11.1292 18.727C9.79609 18.9548 8.68234 19.1531 8.06641 19.267V20.1234C8.61906 20.0221 9.74969 19.8196 11.1292 19.5834V18.727V18.727ZM24.8402 18.1574C24.0175 17.7862 22.3553 17.2799 19.6722 17.5035C17.9552 17.6427 15.3269 18.0351 12.9602 18.4232V19.2796C15.348 18.8873 18.0142 18.4907 19.7439 18.3473C22.8236 18.0942 24.4267 18.8662 24.8402 19.1067V18.1574ZM24.8444 21.2076C24.0302 20.8363 22.3595 20.3174 19.6553 20.541C19.3811 20.5621 19.0858 20.5917 18.7736 20.6254V21.4734C19.1153 21.4354 19.4317 21.4059 19.727 21.3806C22.8658 21.1232 24.4689 21.929 24.8486 22.1568C24.8444 21.8404 24.8444 21.524 24.8444 21.2076V21.2076ZM16.9384 20.8532C13.6394 21.3046 9.53031 22.0345 8.07062 22.3002V23.1567C9.35734 22.9204 13.5634 22.1652 16.9384 21.7012V20.8532ZM11.9181 24.667C10.2602 24.9454 8.82578 25.2027 8.07062 25.3377V26.1942C8.75406 26.0676 10.2095 25.806 11.9181 25.5192V24.667ZM24.8486 24.262C24.0428 23.8907 22.3637 23.3592 19.6342 23.5827C18.1155 23.7093 15.888 24.0257 13.7533 24.3674V25.2196C15.9091 24.8737 18.1745 24.5488 19.7017 24.4223C22.9206 24.1565 24.528 25.0171 24.8486 25.2112V24.262ZM24.857 30.3665C24.0892 29.9995 22.427 29.4468 19.6848 29.6535V30.5015C23.1822 30.2188 24.7684 31.2651 24.857 31.3284V30.3665ZM11.1292 30.8727C9.82984 31.0963 8.72453 31.2904 8.07906 31.4085V32.2649C8.67391 32.1552 9.78766 31.957 11.1292 31.7249V30.8727ZM12.9602 30.569V31.4254C14.597 31.1596 16.3562 30.8896 17.8539 30.6998V29.8476C16.3647 30.0332 14.6055 30.299 12.9602 30.569V30.569ZM15.8922 33.1509C12.8716 33.5896 9.47547 34.1929 8.08328 34.446V35.3024C9.34469 35.0704 12.8041 34.4545 15.8922 34.0031V33.1509ZM24.8612 33.4209C24.0977 33.0496 22.3975 32.4717 19.5625 32.7037C19.0267 32.7459 18.4023 32.8176 17.7231 32.902V33.7499C18.4277 33.6613 19.0773 33.5896 19.63 33.5432C23.2412 33.2437 24.8275 34.3659 24.8444 34.3743L24.8655 34.349C24.8655 34.0579 24.8655 33.7499 24.8612 33.4209V33.4209ZM15.2636 27.1687C12.3864 27.599 9.33625 28.1432 8.07484 28.3752V29.2317C9.20547 29.0249 12.3147 28.4681 15.2636 28.0209V27.1687ZM24.8528 27.3121C24.0597 26.9409 22.3764 26.3924 19.6089 26.6202C18.9002 26.6793 18.0353 26.7806 17.0987 26.9071V27.7593C18.0648 27.6285 18.955 27.5231 19.6806 27.464C23.005 27.1898 24.6123 28.1137 24.857 28.2698C24.8528 27.9576 24.8528 27.637 24.8528 27.3121V27.3121ZM37.2981 12.5338C40.7913 12.9979 45.3559 13.8248 46.5962 14.0484C46.5962 13.7362 46.5962 13.4535 46.592 13.192C45.1408 12.9262 40.6984 12.1331 37.2939 11.6817V12.5338H37.2981ZM35.463 11.4707C35.2816 11.4538 35.1086 11.437 34.9441 11.4243C32.2989 11.2049 30.6452 11.6985 29.8141 12.0656C29.8141 12.3398 29.8183 12.6562 29.8183 13.0021C30.2908 12.7406 31.8897 12.0192 34.8766 12.2638C35.0622 12.2807 35.2605 12.2976 35.463 12.3187V11.4707V11.4707ZM43.1833 16.4868C44.3236 16.6809 45.4626 16.882 46.6005 17.0901V16.2337C45.9381 16.1113 44.6809 15.8877 43.1833 15.6346V16.4868ZM41.3523 15.3267C39.07 14.9596 36.6062 14.5968 34.9694 14.4618C32.3116 14.2424 30.6536 14.7402 29.8225 15.1073V16.0481C30.2697 15.7949 31.8686 15.0524 34.8977 15.3013C36.5472 15.4363 39.0489 15.8076 41.3481 16.1788V15.3267H41.3523ZM40.998 18.3051V19.1573C43.4491 19.5496 45.7314 19.9631 46.6005 20.1234V19.267C45.6175 19.0898 43.3773 18.689 40.998 18.3051ZM37.2939 20.7984C36.4459 20.6887 35.6612 20.5959 35.0116 20.5452C32.3073 20.3217 30.6367 20.8406 29.8225 21.2118V22.161C30.2022 21.9374 31.8095 21.1274 34.9441 21.3848C35.6106 21.4396 36.4206 21.5324 37.2939 21.6506V20.7984ZM39.1291 21.0557V21.9079C42.1877 22.3635 45.4825 22.9584 46.5962 23.1609V22.3045C45.3391 22.0724 42.1117 21.4987 39.1291 21.0557ZM39.5003 24.1481C37.8339 23.8949 36.2181 23.6798 35.0369 23.5827C32.3031 23.3592 30.6241 23.8907 29.8225 24.262V25.2154C30.1431 25.0171 31.7505 24.1607 34.9694 24.4265C36.1633 24.5235 37.8128 24.7471 39.5045 25.0045V24.1481H39.5003ZM41.3312 24.4349V25.2913C43.6262 25.6626 45.7272 26.0423 46.592 26.1984V25.342C45.6302 25.1648 43.563 24.7935 41.3312 24.4349ZM44.3139 27.9702V28.8267C45.3095 28.9996 46.1237 29.1473 46.5878 29.2317V28.3752C46.0816 28.2824 45.28 28.139 44.3139 27.9702ZM37.6694 29.9573C36.7033 29.8265 35.8089 29.721 35.0833 29.662C32.282 29.4299 30.5903 29.9952 29.8141 30.3665V31.3284C29.9027 31.2651 31.4973 30.2104 35.02 30.5015C35.7625 30.5606 36.6822 30.6702 37.6778 30.8052V29.9573H37.6694ZM39.5003 30.2188V31.071C42.4028 31.5098 45.4487 32.0582 46.5878 32.2649V31.4085C45.3222 31.1807 42.3353 30.6492 39.5003 30.2188ZM40.998 33.4884C38.8591 33.1467 36.6231 32.826 35.1044 32.6995C32.2652 32.4674 30.5692 33.0496 29.8056 33.4167V34.3448L29.8267 34.3701C29.8394 34.3617 31.4256 33.2395 35.0411 33.539C36.5725 33.6656 38.8464 33.9946 41.0064 34.3406V33.4884H40.998ZM42.8331 33.7921V34.6485C44.4742 34.9227 45.8748 35.1759 46.5836 35.3067V34.4502C45.8116 34.3068 44.4278 34.0579 42.8331 33.7921ZM34.9862 26.616C32.2609 26.4009 30.5987 26.9451 29.8141 27.3121V28.2698C30.0587 28.1137 31.6619 27.1898 34.9862 27.464V26.616V26.616ZM36.8214 26.8101V27.6581C38.5595 27.8774 40.6478 28.2065 42.483 28.5102V27.6538C40.6352 27.3501 38.5469 27.0252 36.8214 26.8101V26.8101ZM33.632 17.4529C31.742 17.4656 30.4975 17.8537 29.8267 18.1574V19.1024C30.1811 18.8999 31.3919 18.3135 33.632 18.2924V17.4529ZM35.463 17.5457V18.3937C36.5134 18.4992 37.817 18.6763 39.1628 18.8746V18.0224C37.8128 17.8199 36.5134 17.647 35.463 17.5457V17.5457Z" fill="#757575"/>
<path d="M30.0209 41.5336C29.5484 41.4914 29.1138 41.7825 28.962 42.2339C28.7341 42.9216 28.2026 43.8202 27.0002 43.8202C25.7852 43.8202 25.2495 42.9173 25.0174 42.2297C24.9452 42.0142 24.803 41.829 24.6134 41.7037C24.4238 41.5783 24.1978 41.5199 23.9712 41.5378L23.8066 41.5505L23.8109 41.6855C23.8109 42.5302 24.1464 43.3404 24.7438 43.9377C25.3411 44.535 26.1513 44.8706 26.996 44.8706C27.8408 44.8706 28.6509 44.535 29.2483 43.9377C29.8456 43.3404 30.1812 42.5302 30.1812 41.6855C30.1812 41.6433 30.177 41.5463 30.177 41.5463L30.0209 41.5336V41.5336Z" fill="#616161"/>
<defs>
<linearGradient id="paint0_linear_403_78" x1="49.4623" y1="37.2097" x2="49.5665" y2="29.91" gradientUnits="userSpaceOnUse">
<stop offset="0.267" stop-color="#82AEC0"/>
<stop offset="1" stop-color="#82AEC0" stop-opacity="0"/>
</linearGradient>
<linearGradient id="paint1_linear_403_78" x1="29.4958" y1="35.6911" x2="47.5567" y2="35.6911" gradientUnits="userSpaceOnUse">
<stop stop-color="#2F7889"/>
<stop offset="1" stop-color="#82AEC0"/>
</linearGradient>
<linearGradient id="paint2_linear_403_78" x1="24.4595" y1="35.6911" x2="6.43869" y2="35.6911" gradientUnits="userSpaceOnUse">
<stop stop-color="#2F7889"/>
<stop offset="1" stop-color="#82AEC0"/>
</linearGradient>
<linearGradient id="paint3_linear_403_78" x1="4.53615" y1="37.2097" x2="4.43152" y2="29.91" gradientUnits="userSpaceOnUse">
<stop offset="0.267" stop-color="#82AEC0"/>
<stop offset="1" stop-color="#82AEC0" stop-opacity="0"/>
</linearGradient>
</defs>
</svg>
