<svg width="54" height="54" viewBox="0 0 54 54" fill="none" xmlns="http://www.w3.org/2000/svg">
<path d="M49.7937 43.1663L30.4971 51.8907C29.3074 52.4518 28.0671 52.3969 26.928 51.7388L2.56897 39.3694C1.87288 38.9222 1.66616 38.2683 1.70835 37.8127C1.75054 37.3571 1.85601 36.8635 3.07944 36.5091L4.88507 35.8425L29.3201 49.1611L46.6844 42.0652L49.7937 43.1663V43.1663Z" fill="#01579B"/>
<path d="M30.2651 50.4942C29.7826 50.7206 29.2531 50.8287 28.7204 50.8096C28.1878 50.7906 27.6674 50.6448 27.2023 50.3846L3.4212 38.4033C3.0837 38.2177 2.98245 37.7916 3.18495 37.4625C3.70808 36.5977 4.66995 33.8639 3.0837 31.5942L29.9403 44.5247L30.2651 50.4942Z" fill="#F5F5F5"/>
<path d="M48.7643 42.1791L30.2651 50.4943C29.6534 50.7601 28.4341 51.2326 27.0293 50.2876C28.1388 50.3677 28.9193 49.9079 29.3201 49.1612C29.7124 48.4356 29.5943 47.2459 29.1176 46.5751C28.8265 46.1701 28.046 45.5246 27.7043 45.1618L47.7138 37.336C49.4857 36.6062 51.1479 37.6988 51.4137 39.0277C51.709 40.5296 49.7937 41.7573 48.7643 42.1791V42.1791Z" fill="#94C6D6"/>
<path d="M49.6884 36.6863L30.5901 45.2082C29.3878 45.6849 28.042 45.6217 26.8903 45.0395L2.48906 32.6448C2.25281 32.5267 1.90265 32.2018 1.76343 31.7588C1.53562 31.0206 1.82249 30.0924 2.68734 29.7971L29.1305 43.276L47.2373 35.5262L49.6884 36.6863Z" fill="#01579B"/>
<path d="M51.1268 37.9224L49.047 37.1673L44.7607 37.4162L30.5941 43.7401C29.3918 44.2168 28.046 44.1535 26.8943 43.5713L2.48883 31.1809C1.86024 30.8602 1.99524 29.9279 2.68711 29.7971L20.2751 21.9291C20.7771 21.8363 21.2918 21.8912 21.7601 22.0895L46.8574 34.0538C46.8574 34.0538 50.8441 36.7834 51.1268 37.9224Z" fill="#0091EA"/>
<path d="M44.5206 37.5384C44.5206 37.5384 47.1615 36.5048 49.2371 36.5976C51.3128 36.6904 52.0342 38.1459 52.0342 38.1459C51.6418 36.3614 49.7982 35.4501 49.7982 35.4501L22.3764 21.6422C22.1865 21.562 21.4862 21.3975 20.4104 21.8404C19.5414 22.199 16.7021 23.5279 16.7021 23.5279L44.5206 37.5384Z" fill="#616161"/>
<path d="M52.152 38.4834C51.9538 37.6945 51.4644 36.8507 50.5616 36.4415C49.3719 35.9057 47.6759 36.0449 46.5917 36.6103L44.5203 37.5299V38.9896L47.1402 37.8253C49.6883 36.6904 50.8189 38.3906 50.9159 38.7914C51.3209 40.424 50.5363 41.369 48.2202 42.4321L44.457 44.1281V45.5962L48.7855 43.6682C50.7008 42.9004 52.8861 41.4576 52.152 38.4834V38.4834Z" fill="#424242"/>
<path d="M13.9264 38.0994L6.64062 28.0293L7.78391 27.5188L15.9809 38.7829L13.9264 38.0994ZM23.2709 42.74L21.9716 41.7107L44.5208 37.108V37.8463L41.3609 39.0444L23.2709 42.74Z" fill="#01579B"/>
<path d="M6.24414 19.4821L34.7249 14.7234L47.166 28.4217C47.7946 29.084 47.4529 30.1809 46.5585 30.3623L17.1538 36.3951L6.24414 19.4821Z" fill="#9CCC65"/>
<path d="M46.5577 29.1812L17.3555 35.0959L17.2627 36.4881L46.5577 30.4806C47.3846 30.3076 47.7305 29.3626 47.2791 28.696C47.1188 28.9323 46.8741 29.1179 46.5577 29.1812ZM48.1313 35.5642C48.4393 36.0535 48.1608 36.699 47.5955 36.8129L20.7136 42.2635C19.0979 42.5968 17.5116 41.5379 17.3682 39.8926C17.2458 38.5004 18.1866 37.239 19.5577 36.9521L45.4102 31.1471L48.1313 35.5642Z" fill="#689F38"/>
<path d="M23.4525 33.7922L12.7453 18.4697L6.63654 20.0855C5.22326 21.4904 5.7506 23.798 5.7506 23.798C5.7506 23.798 15.1036 38.8083 16.5801 40.7279C18.0567 42.6474 20.2125 42.3479 20.2125 42.3479L23.8533 41.6138L23.4736 34.8216L23.4525 33.7922V33.7922Z" fill="#616161"/>
<path d="M23.4523 33.8934L18.3097 34.9566C16.9048 35.273 16.6517 36.5934 16.6517 36.5934L4.23594 18.803C4.23594 18.803 2.46829 20.9419 3.6411 22.7602L16.58 40.7278C17.9933 42.7402 20.2123 42.3647 20.2123 42.3647L23.8531 41.6306L23.4777 34.9734L23.4523 33.8934V33.8934Z" fill="#424242"/>
<path d="M46.5118 35.0156C46.6425 35.3024 46.4738 35.6357 46.1658 35.699L20.461 40.9724C18.8452 41.3057 17.7019 40.2341 17.761 38.7745C17.8369 36.9309 18.8705 36.1504 20.2374 35.8677L46.0688 30.5901C46.0688 30.5901 45.1913 31.5773 45.8621 33.4251C46.0899 34.0621 46.3346 34.6274 46.5118 35.0156Z" fill="#B9E4EA"/>
<path d="M19.0728 35.3109L8.05762 19.7268" stroke="#424242" stroke-width="2.071" stroke-miterlimit="10"/>
<path d="M19.9376 28.6664L5.77102 21.5283L5.19727 22.6589L21.566 30.9994L19.9376 28.6664Z" fill="#424242"/>
<path d="M45.8955 27.0126L44.8577 25.8735L28.8981 33.1973L19.9375 28.7634L21.4647 30.9487L27.4005 33.982L31.8217 33.3028L45.8955 27.0126Z" fill="#689F38"/>
<path d="M49.7894 24.1945L30.4971 32.9189C29.3074 33.48 28.0671 33.4252 26.928 32.767L2.56897 20.3977C1.87288 19.9505 1.66616 19.2966 1.70835 18.8409C1.75054 18.3853 1.85601 17.8917 3.07944 17.5374L4.22272 17.1155L29.2484 29.3963L49.5701 20.9883L49.7894 24.1945V24.1945Z" fill="#C62828"/>
<path d="M30.2612 31.5226C29.7787 31.7489 29.2492 31.857 28.7165 31.838C28.1839 31.8189 27.6635 31.6732 27.1984 31.4129L3.4173 19.4316C3.0798 19.246 2.97855 18.8199 3.18105 18.4908C3.70417 17.626 4.66605 14.8922 3.0798 12.6226L29.3373 25.9791L30.2612 31.5226Z" fill="#F5F5F5"/>
<path d="M48.7604 23.2072L30.2612 31.5224C29.6495 31.7882 28.4302 32.2607 27.0254 31.3157C28.1349 31.3958 28.9154 30.936 29.3162 30.1893C29.7085 29.4636 29.5904 28.2739 29.1137 27.6032C28.8226 27.1982 28.0421 26.5527 27.7004 26.1899L47.7099 18.3641C49.4818 17.6343 51.144 18.7269 51.4098 20.0558C51.7051 21.5577 49.7898 22.7853 48.7604 23.2072Z" fill="#94C6D6"/>
<path d="M49.6884 17.7145L30.5901 26.2364C29.3878 26.7131 28.042 26.6498 26.8903 26.0676L2.48481 13.673C2.23168 13.5464 1.852 13.2216 1.72965 12.7617C1.54825 12.0783 1.7845 11.1797 2.68309 10.8253L25.0467 6.08765L49.6884 17.7145V17.7145Z" fill="#C62828"/>
<path d="M51.1224 18.9507L49.0426 18.1956L44.7563 18.4445L30.5898 24.7684C29.3874 25.2451 28.0417 25.1818 26.8899 24.5996L2.48447 12.205C1.85588 11.8843 2.07947 11.0364 2.68275 10.8212L20.2749 2.95746C20.777 2.86465 21.2917 2.91949 21.7599 3.11777L46.8573 15.0821C46.8573 15.0821 50.8398 17.8075 51.1224 18.9507Z" fill="#F44336"/>
<path d="M44.5203 18.5626C44.5203 18.5626 46.7182 17.7906 48.7939 17.8834C50.8695 17.9762 52.0381 19.1701 52.0381 19.1701C51.612 17.2632 49.8022 16.4743 49.8022 16.4743L22.3803 2.66633C22.1904 2.58617 21.4901 2.42164 20.4143 2.86461C19.5453 3.22321 16.7061 4.55211 16.7061 4.55211L44.5203 18.5626Z" fill="#616161"/>
<path d="M47.0306 17.6597L18.9717 3.50579L19.8998 3.08813L48.4354 17.3897L47.0306 17.6597Z" fill="#424242"/>
<path d="M52.1481 19.5117C51.9498 18.7228 51.6166 17.9592 50.6758 17.5626C49.4734 17.0564 48.3766 16.9509 46.5878 17.6386L44.5164 18.5583V20.018L47.1363 18.8536C48.4652 18.2292 50.4227 18.3642 50.912 19.8197C51.4478 21.4144 50.5323 22.3973 48.2162 23.4605L44.4531 25.1564V26.6245L48.7816 24.6966C50.7011 23.9287 52.8864 22.4859 52.1481 19.5117V19.5117Z" fill="#424242"/>
</svg>
