<svg width="54" height="54" viewBox="0 0 54 54" fill="none" xmlns="http://www.w3.org/2000/svg">
<g clip-path="url(#clip0_403_119)">
<path d="M42.6096 29.025C39.9096 21.8531 32.569 15.9469 35.1002 7.17188C25.2283 8.01562 15.3565 8.94375 5.48459 9.7875C0.759589 26.1562 21.1783 35.1844 16.369 51.5531C25.3127 46.9125 34.594 42.7781 43.4533 38.2219C44.3815 35.0156 43.6221 31.725 42.6096 29.025Z" fill="#93A2AA"/>
<path d="M5.56836 31.8938C8.18398 30.375 10.884 28.8563 13.4996 27.2532C15.2715 28.8563 16.8746 30.6282 17.8027 32.7375C15.0184 34.0875 12.234 35.5219 9.53398 36.8719C9.61836 35.6063 9.61836 34.425 9.53398 33.3282C8.26836 32.8219 6.91836 32.3157 5.56836 31.8938" fill="#933434"/>
<path d="M49.7815 28.1813C46.6596 19.9126 38.2221 13.1626 41.1752 3.0376C29.869 4.0501 18.4784 5.0626 7.17212 6.0751C1.68775 24.8063 25.0596 35.1845 19.5752 54.0001C29.7846 48.6845 40.5002 43.9595 50.7096 38.6438C51.8065 34.9313 50.9627 31.2188 49.7815 28.1813Z" fill="#B0BDC6"/>
<path d="M0 19.4063C3.45937 18.3938 7.00312 17.2969 10.4625 16.2844C12.15 18.6469 13.5 21.1782 14.0906 23.9625C10.4625 24.8063 6.91875 25.5657 3.29063 26.4094C3.79688 24.975 4.05 23.625 4.21875 22.1907C2.86875 21.1782 1.51875 20.3344 0 19.4063" fill="#ED4C5C"/>
<path d="M8.6905 4.21875C4.04988 22.275 27.928 31.05 23.203 49.1063C33.2436 43.7063 43.6217 38.7281 53.6624 33.3281C54.5905 29.7844 53.578 26.2406 52.3124 23.4562C48.7686 15.6937 40.078 9.61875 42.6092 0C31.303 1.43438 19.9967 2.86875 8.6905 4.21875Z" fill="#D9E3E8"/>
<path d="M12.4873 10.4624C12.5717 11.1374 12.7404 11.8124 12.8248 12.403L38.3904 7.34053C38.3061 6.83428 38.1373 6.32803 38.0529 5.82178C29.5311 7.4249 21.0092 8.94365 12.4873 10.4624V10.4624ZM14.8498 17.6343C23.2029 15.6093 31.5561 13.5843 39.9936 11.5593C39.7404 11.053 39.4873 10.6312 39.3186 10.1249C30.8811 12.0655 22.4436 13.9218 14.0061 15.8624C14.2592 16.453 14.5967 17.0437 14.8498 17.6343V17.6343ZM17.8873 22.4437C26.0717 20.0812 34.1717 17.7187 42.3561 15.3562C42.0186 14.9343 41.7654 14.428 41.4279 14.0062C33.1592 16.2843 24.9748 18.478 16.7061 20.7562C17.1279 21.3468 17.4654 21.9374 17.8873 22.4437V22.4437ZM26.9998 38.5593C27.1686 39.2343 27.2529 39.8249 27.3373 40.4999C31.0498 38.728 34.8467 36.8718 38.5592 35.0999C38.4748 34.5093 38.3904 33.9187 38.2217 33.328C34.5092 35.0155 30.7967 36.7874 26.9998 38.5593Z" fill="#7D8B91"/>
</g>
<defs>
<clipPath id="clip0_403_119">
<rect width="54" height="54" fill="white"/>
</clipPath>
</defs>
</svg>
