<svg width="130" height="22" viewBox="0 0 130 22" fill="none" xmlns="http://www.w3.org/2000/svg">
<path d="M35.04 -1.43051e-06L28.23 21H21.87L17.85 8.22L13.65 21H7.29L0.48 -1.43051e-06H6.6L10.83 13.41L15.27 -1.43051e-06H20.73L24.96 13.53L29.37 -1.43051e-06H35.04Z" fill="white"/>
<path d="M50.8083 4.71H44.3583V-1.43051e-06H63.1683V4.71H56.7483V21H50.8083V4.71ZM81.889 4.74V21H76.459V19.26C75.859 19.92 75.139 20.42 74.299 20.76C73.459 21.1 72.569 21.27 71.629 21.27C69.529 21.27 67.849 20.65 66.589 19.41C65.349 18.17 64.729 16.31 64.729 13.83V4.74H70.429V12.9C70.429 14.12 70.659 15.01 71.119 15.57C71.579 16.13 72.249 16.41 73.129 16.41C74.029 16.41 74.759 16.1 75.319 15.48C75.899 14.84 76.189 13.87 76.189 12.57V4.74H81.889ZM96.7805 20.34C96.3005 20.64 95.7105 20.87 95.0105 21.03C94.3305 21.19 93.6005 21.27 92.8205 21.27C90.7005 21.27 89.0705 20.75 87.9305 19.71C86.7905 18.67 86.2205 17.12 86.2205 15.06V9.6H83.8505V5.34H86.2205V1.11H91.9205V5.34H95.6405V9.6H91.9205V15C91.9205 15.58 92.0705 16.04 92.3705 16.38C92.6905 16.7 93.1105 16.86 93.6305 16.86C94.2905 16.86 94.8705 16.69 95.3705 16.35L96.7805 20.34ZM106.67 21.27C104.93 21.27 103.36 20.91 101.96 20.19C100.56 19.47 99.4597 18.47 98.6597 17.19C97.8797 15.91 97.4897 14.46 97.4897 12.84C97.4897 11.24 97.8797 9.8 98.6597 8.52C99.4597 7.24 100.55 6.25 101.93 5.55C103.33 4.83 104.91 4.47 106.67 4.47C108.43 4.47 110.01 4.83 111.41 5.55C112.81 6.25 113.9 7.24 114.68 8.52C115.46 9.78 115.85 11.22 115.85 12.84C115.85 14.46 115.46 15.91 114.68 17.19C113.9 18.47 112.81 19.47 111.41 20.19C110.01 20.91 108.43 21.27 106.67 21.27ZM106.67 16.74C107.67 16.74 108.49 16.4 109.13 15.72C109.77 15.02 110.09 14.06 110.09 12.84C110.09 11.64 109.77 10.7 109.13 10.02C108.49 9.34 107.67 9 106.67 9C105.67 9 104.85 9.34 104.21 10.02C103.57 10.7 103.25 11.64 103.25 12.84C103.25 14.06 103.57 15.02 104.21 15.72C104.85 16.4 105.67 16.74 106.67 16.74ZM123.92 6.69C124.5 5.95 125.25 5.4 126.17 5.04C127.11 4.66 128.18 4.47 129.38 4.47V9.6C128.86 9.54 128.43 9.51 128.09 9.51C126.87 9.51 125.91 9.84 125.21 10.5C124.53 11.16 124.19 12.17 124.19 13.53V21H118.49V4.74H123.92V6.69Z" fill="#FF9B53"/>
</svg>
